<svg xmlns="http://www.w3.org/2000/svg" xmlns:svg="http://www.w3.org/2000/svg" xmlns:xlink="http://www.w3.org/1999/xlink" id="svg3440" width="48" height="48" version="1.1"><defs id="defs3"><linearGradient id="linearGradient264"><stop id="stop265" offset="0" style="stop-color:#000;stop-opacity:.502994"/><stop id="stop266" offset="1" style="stop-color:#000;stop-opacity:0"/></linearGradient><linearGradient id="linearGradient263" x1="28.633" x2="28.784" y1="29.943" y2="31.49" gradientTransform="matrix(0.810817,0.000000,0.000000,1.233324,1.118717,-4.642761)" gradientUnits="userSpaceOnUse" xlink:href="#linearGradient264"/><linearGradient id="linearGradient218"><stop id="stop219" offset="0" style="stop-color:#fff;stop-opacity:.44910181"/><stop id="stop222" offset="1" style="stop-color:#fff;stop-opacity:0"/></linearGradient><linearGradient id="linearGradient217" x1="36.373" x2="38.105" y1="22.228" y2="22.228" gradientTransform="matrix(1.138691,0.000000,0.000000,1.732051,-19.29901,-4.517761)" gradientUnits="userSpaceOnUse" xlink:href="#linearGradient218"/><linearGradient id="linearGradient204"><stop id="stop205" offset="0" style="stop-color:#7a7a7a;stop-opacity:1"/><stop id="stop207" offset=".198" style="stop-color:#c5c5c5;stop-opacity:1"/><stop id="stop208" offset=".599" style="stop-color:#626262;stop-opacity:1"/><stop id="stop206" offset="1" style="stop-color:#888;stop-opacity:1"/></linearGradient><linearGradient id="linearGradient203" x1="23.1" x2="23.1" y1="38.297" y2="43.915" gradientTransform="matrix(0.983801,0.000000,0.000000,1.016466,1.118717,-3.017762)" gradientUnits="userSpaceOnUse" xlink:href="#linearGradient204"/><linearGradient id="linearGradient178"><stop id="stop179" offset="0" style="stop-color:#fff;stop-opacity:0"/><stop id="stop180" offset=".108" style="stop-color:#fff;stop-opacity:.70658684"/><stop id="stop181" offset=".921" style="stop-color:#fff;stop-opacity:.70658684"/><stop id="stop182" offset="1" style="stop-color:#fff;stop-opacity:0"/></linearGradient><linearGradient id="linearGradient177" x1="1.642" x2="15.343" y1="117.827" y2="117.827" gradientTransform="matrix(2.740165,0,0,0.182471,1.118717,16.49994)" gradientUnits="userSpaceOnUse" xlink:href="#linearGradient178"/><linearGradient id="linearGradient271" x1=".612" x2="5.086" y1="372.578" y2="372.578" gradientTransform="matrix(8.168597,0,0,0.228621,1.118717,-40.55063)" gradientUnits="userSpaceOnUse" xlink:href="#linearGradient272"/><linearGradient id="linearGradient272"><stop id="stop273" offset="0" style="stop-color:#474747;stop-opacity:0"/><stop id="stop275" offset=".1" style="stop-color:#474747;stop-opacity:1"/><stop id="stop276" offset=".9" style="stop-color:#474747;stop-opacity:1"/><stop id="stop274" offset="1" style="stop-color:#474747;stop-opacity:0"/></linearGradient><linearGradient id="linearGradient283" x1=".612" x2="5.086" y1="372.578" y2="372.578" gradientTransform="matrix(8.168597,0.000000,0.000000,0.221210,1.118717,-41.93917)" gradientUnits="userSpaceOnUse" xlink:href="#linearGradient272"/><linearGradient id="linearGradient158"><stop id="stop159" offset="0" style="stop-color:#686868;stop-opacity:0"/><stop id="stop162" offset=".238" style="stop-color:#686868;stop-opacity:1"/><stop id="stop163" offset=".781" style="stop-color:#686868;stop-opacity:1"/><stop id="stop160" offset="1" style="stop-color:#686868;stop-opacity:0"/></linearGradient><linearGradient id="linearGradient175" x1="1.642" x2="15.343" y1="117.827" y2="117.827" gradientTransform="matrix(2.740165,0.000000,0.000000,0.364942,1.118717,-4.017762)" gradientUnits="userSpaceOnUse" xlink:href="#linearGradient158"/><linearGradient id="linearGradient6377"><stop id="stop6379" offset="0" style="stop-color:red;stop-opacity:1"/><stop id="stop6381" offset="1" style="stop-color:#fff;stop-opacity:0"/></linearGradient><linearGradient id="linearGradient6361"><stop style="stop-color:red;stop-opacity:1" id="stop6363" offset="0"/><stop style="stop-color:#143b68;stop-opacity:0" id="stop6365" offset="1"/></linearGradient><linearGradient id="linearGradient4750"><stop id="stop4752" offset="0" style="stop-color:#fff;stop-opacity:1"/><stop id="stop4758" offset=".379" style="stop-color:#fefefe;stop-opacity:1"/><stop id="stop4754" offset="1" style="stop-color:#1d1d1d;stop-opacity:1"/></linearGradient><linearGradient id="linearGradient4350"><stop id="stop4352" offset="0" style="stop-color:#fff;stop-opacity:1"/><stop id="stop4354" offset="1" style="stop-color:#fff;stop-opacity:0"/></linearGradient><linearGradient id="linearGradient4126"><stop id="stop4128" offset="0" style="stop-color:#fff;stop-opacity:1"/><stop id="stop4130" offset="1" style="stop-color:#fff;stop-opacity:.16494845"/></linearGradient><linearGradient id="linearGradient4114"><stop id="stop4116" offset="0" style="stop-color:#000;stop-opacity:1"/><stop id="stop4118" offset="1" style="stop-color:#000;stop-opacity:0"/></linearGradient><linearGradient id="linearGradient3962"><stop id="stop3964" offset="0" style="stop-color:#d3e9ff;stop-opacity:1"/><stop id="stop4134" offset=".155" style="stop-color:#d3e9ff;stop-opacity:1"/><stop id="stop4346" offset=".75" style="stop-color:#4074ae;stop-opacity:1"/><stop id="stop3966" offset="1" style="stop-color:#36486c;stop-opacity:1"/></linearGradient><radialGradient id="radialGradient3968" cx="18.248" cy="15.716" r="29.993" fx="18.248" fy="15.716" gradientTransform="matrix(0.82478814,0,0,0.82480525,3.4595706,4.5886988)" gradientUnits="userSpaceOnUse" xlink:href="#linearGradient3962"/><radialGradient id="radialGradient4120" cx="15.116" cy="63.965" r="12.289" fx="15.116" fy="63.965" gradientTransform="scale(1.64399,0.608276)" gradientUnits="userSpaceOnUse" xlink:href="#linearGradient4114"/><radialGradient id="radialGradient4132" cx="15.601" cy="12.142" r="43.527" fx="15.601" fy="12.142" gradientTransform="matrix(0.82478814,0,0,0.82480525,3.4595706,4.5886988)" gradientUnits="userSpaceOnUse" xlink:href="#linearGradient4126"/><radialGradient id="radialGradient4356" cx="11.827" cy="10.476" r="32.665" fx="11.827" fy="10.476" gradientTransform="scale(1.179536,0.847791)" gradientUnits="userSpaceOnUse" xlink:href="#linearGradient4350"/><radialGradient id="radialGradient4756" cx="18.634" cy="17.486" r="40.693" fx="18.934" fy="17.81" gradientTransform="scale(1.036822,0.964486)" gradientUnits="userSpaceOnUse" xlink:href="#linearGradient4750"/><radialGradient id="radialGradient6261" cx="18.634" cy="17.486" r="40.693" fx="18.934" fy="17.81" gradientTransform="scale(1.036822,0.964486)" gradientUnits="userSpaceOnUse" xlink:href="#linearGradient4750"/><radialGradient id="radialGradient6263" cx="18.634" cy="17.486" r="40.693" fx="18.934" fy="17.81" gradientTransform="scale(1.036822,0.964486)" gradientUnits="userSpaceOnUse" xlink:href="#linearGradient4750"/><radialGradient id="radialGradient6265" cx="18.634" cy="17.486" r="40.693" fx="18.934" fy="17.81" gradientTransform="scale(1.036822,0.964486)" gradientUnits="userSpaceOnUse" xlink:href="#linearGradient4750"/><radialGradient id="radialGradient6267" cx="18.634" cy="17.486" r="40.693" fx="18.934" fy="17.81" gradientTransform="scale(1.036822,0.964486)" gradientUnits="userSpaceOnUse" xlink:href="#linearGradient4750"/><radialGradient id="radialGradient6269" cx="18.634" cy="17.486" r="40.693" fx="18.934" fy="17.81" gradientTransform="scale(1.036822,0.964486)" gradientUnits="userSpaceOnUse" xlink:href="#linearGradient4750"/><radialGradient id="radialGradient6271" cx="18.634" cy="17.486" r="40.693" fx="18.934" fy="17.81" gradientTransform="scale(1.036822,0.964486)" gradientUnits="userSpaceOnUse" xlink:href="#linearGradient4750"/><radialGradient id="radialGradient6273" cx="18.634" cy="17.486" r="40.693" fx="18.934" fy="17.81" gradientTransform="scale(1.036822,0.964486)" gradientUnits="userSpaceOnUse" xlink:href="#linearGradient4750"/><radialGradient id="radialGradient6275" cx="18.634" cy="17.486" r="40.693" fx="18.934" fy="17.81" gradientTransform="scale(1.036822,0.964486)" gradientUnits="userSpaceOnUse" xlink:href="#linearGradient4750"/><radialGradient id="radialGradient6277" cx="18.634" cy="17.486" r="40.693" fx="18.934" fy="17.81" gradientTransform="scale(1.036822,0.964486)" gradientUnits="userSpaceOnUse" xlink:href="#linearGradient4750"/><radialGradient id="radialGradient6279" cx="18.634" cy="17.486" r="40.693" fx="18.934" fy="17.81" gradientTransform="scale(1.036822,0.964486)" gradientUnits="userSpaceOnUse" xlink:href="#linearGradient4750"/><radialGradient id="radialGradient6281" cx="18.634" cy="17.486" r="40.693" fx="18.934" fy="17.81" gradientTransform="scale(1.036822,0.964486)" gradientUnits="userSpaceOnUse" xlink:href="#linearGradient4750"/><radialGradient id="radialGradient6283" cx="18.634" cy="17.486" r="40.693" fx="18.934" fy="17.81" gradientTransform="scale(1.036822,0.964486)" gradientUnits="userSpaceOnUse" xlink:href="#linearGradient4750"/><radialGradient id="radialGradient6285" cx="18.634" cy="17.486" r="40.693" fx="18.934" fy="17.81" gradientTransform="scale(1.036822,0.964486)" gradientUnits="userSpaceOnUse" xlink:href="#linearGradient4750"/><radialGradient id="radialGradient6287" cx="18.634" cy="17.486" r="40.693" fx="18.934" fy="17.81" gradientTransform="scale(1.036822,0.964486)" gradientUnits="userSpaceOnUse" xlink:href="#linearGradient4750"/><radialGradient id="radialGradient6289" cx="18.634" cy="17.486" r="40.693" fx="18.934" fy="17.81" gradientTransform="scale(1.036822,0.964486)" gradientUnits="userSpaceOnUse" xlink:href="#linearGradient4750"/><radialGradient id="radialGradient6291" cx="18.634" cy="17.486" r="40.693" fx="18.934" fy="17.81" gradientTransform="scale(1.036822,0.964486)" gradientUnits="userSpaceOnUse" xlink:href="#linearGradient4750"/><radialGradient id="radialGradient6293" cx="18.634" cy="17.486" r="40.693" fx="18.934" fy="17.81" gradientTransform="scale(1.036822,0.964486)" gradientUnits="userSpaceOnUse" xlink:href="#linearGradient4750"/><radialGradient id="radialGradient6295" cx="18.634" cy="17.486" r="40.693" fx="18.934" fy="17.81" gradientTransform="scale(1.036822,0.964486)" gradientUnits="userSpaceOnUse" xlink:href="#linearGradient4750"/><radialGradient id="radialGradient6297" cx="18.634" cy="17.486" r="40.693" fx="18.934" fy="17.81" gradientTransform="scale(1.036822,0.964486)" gradientUnits="userSpaceOnUse" xlink:href="#linearGradient4750"/><radialGradient id="radialGradient6299" cx="18.634" cy="17.486" r="40.693" fx="18.934" fy="17.81" gradientTransform="scale(1.036822,0.964486)" gradientUnits="userSpaceOnUse" xlink:href="#linearGradient4750"/><radialGradient id="radialGradient6301" cx="18.634" cy="17.486" r="40.693" fx="18.934" fy="17.81" gradientTransform="scale(1.036822,0.964486)" gradientUnits="userSpaceOnUse" xlink:href="#linearGradient4750"/><radialGradient id="radialGradient6303" cx="18.634" cy="17.486" r="40.693" fx="18.934" fy="17.81" gradientTransform="scale(1.036822,0.964486)" gradientUnits="userSpaceOnUse" xlink:href="#linearGradient4750"/><radialGradient id="radialGradient6305" cx="18.634" cy="17.486" r="40.693" fx="18.934" fy="17.81" gradientTransform="scale(1.036822,0.964486)" gradientUnits="userSpaceOnUse" xlink:href="#linearGradient4750"/><radialGradient id="radialGradient6307" cx="18.634" cy="17.486" r="40.693" fx="18.934" fy="17.81" gradientTransform="scale(1.036822,0.964486)" gradientUnits="userSpaceOnUse" xlink:href="#linearGradient4750"/><radialGradient id="radialGradient6309" cx="18.634" cy="17.486" r="40.693" fx="18.934" fy="17.81" gradientTransform="scale(1.036822,0.964486)" gradientUnits="userSpaceOnUse" xlink:href="#linearGradient4750"/><radialGradient id="radialGradient6311" cx="18.634" cy="17.486" r="40.693" fx="18.934" fy="17.81" gradientTransform="scale(1.036822,0.964486)" gradientUnits="userSpaceOnUse" xlink:href="#linearGradient4750"/><radialGradient id="radialGradient6313" cx="18.634" cy="17.486" r="40.693" fx="18.934" fy="17.81" gradientTransform="scale(1.036822,0.964486)" gradientUnits="userSpaceOnUse" xlink:href="#linearGradient4750"/><radialGradient id="radialGradient6315" cx="18.634" cy="17.486" r="40.693" fx="18.934" fy="17.81" gradientTransform="scale(1.036822,0.964486)" gradientUnits="userSpaceOnUse" xlink:href="#linearGradient4750"/><radialGradient id="radialGradient6317" cx="18.634" cy="17.486" r="40.693" fx="18.934" fy="17.81" gradientTransform="scale(1.036822,0.964486)" gradientUnits="userSpaceOnUse" xlink:href="#linearGradient4750"/><radialGradient id="radialGradient6319" cx="18.634" cy="17.486" r="40.693" fx="18.934" fy="17.81" gradientTransform="scale(1.036822,0.964486)" gradientUnits="userSpaceOnUse" xlink:href="#linearGradient4750"/><radialGradient id="radialGradient6321" cx="18.634" cy="17.486" r="40.693" fx="18.934" fy="17.81" gradientTransform="scale(1.036822,0.964486)" gradientUnits="userSpaceOnUse" xlink:href="#linearGradient4750"/><radialGradient id="radialGradient6323" cx="18.634" cy="17.486" r="40.693" fx="18.934" fy="17.81" gradientTransform="scale(1.036822,0.964486)" gradientUnits="userSpaceOnUse" xlink:href="#linearGradient4750"/><radialGradient id="radialGradient6325" cx="18.634" cy="17.486" r="40.693" fx="18.934" fy="17.81" gradientTransform="scale(1.036822,0.964486)" gradientUnits="userSpaceOnUse" xlink:href="#linearGradient4750"/><radialGradient id="radialGradient6327" cx="18.634" cy="17.486" r="40.693" fx="18.934" fy="17.81" gradientTransform="scale(1.036822,0.964486)" gradientUnits="userSpaceOnUse" xlink:href="#linearGradient4750"/><radialGradient id="radialGradient6329" cx="18.634" cy="17.486" r="40.693" fx="18.934" fy="17.81" gradientTransform="scale(1.036822,0.964486)" gradientUnits="userSpaceOnUse" xlink:href="#linearGradient4750"/><radialGradient id="radialGradient6331" cx="18.634" cy="17.486" r="40.693" fx="18.934" fy="17.81" gradientTransform="scale(1.036822,0.964486)" gradientUnits="userSpaceOnUse" xlink:href="#linearGradient4750"/><radialGradient id="radialGradient6333" cx="18.634" cy="17.486" r="40.693" fx="18.934" fy="17.81" gradientTransform="scale(1.036822,0.964486)" gradientUnits="userSpaceOnUse" xlink:href="#linearGradient4750"/><radialGradient id="radialGradient6335" cx="18.634" cy="17.486" r="40.693" fx="18.934" fy="17.81" gradientTransform="scale(1.036822,0.964486)" gradientUnits="userSpaceOnUse" xlink:href="#linearGradient4750"/><radialGradient id="radialGradient6337" cx="18.634" cy="17.486" r="40.693" fx="18.934" fy="17.81" gradientTransform="scale(1.036822,0.964486)" gradientUnits="userSpaceOnUse" xlink:href="#linearGradient4750"/><radialGradient id="radialGradient6339" cx="18.634" cy="17.486" r="40.693" fx="18.934" fy="17.81" gradientTransform="scale(1.036822,0.964486)" gradientUnits="userSpaceOnUse" xlink:href="#linearGradient4750"/><radialGradient id="radialGradient6341" cx="18.634" cy="17.486" r="40.693" fx="18.934" fy="17.81" gradientTransform="scale(1.036822,0.964486)" gradientUnits="userSpaceOnUse" xlink:href="#linearGradient4750"/><radialGradient id="radialGradient6343" cx="18.634" cy="17.486" r="40.693" fx="18.934" fy="17.81" gradientTransform="scale(1.036822,0.964486)" gradientUnits="userSpaceOnUse" xlink:href="#linearGradient4750"/><radialGradient id="radialGradient6345" cx="18.634" cy="17.486" r="40.693" fx="18.934" fy="17.81" gradientTransform="scale(1.036822,0.964486)" gradientUnits="userSpaceOnUse" xlink:href="#linearGradient4750"/><radialGradient id="radialGradient6347" cx="18.634" cy="17.486" r="40.693" fx="18.934" fy="17.81" gradientTransform="scale(1.036822,0.964486)" gradientUnits="userSpaceOnUse" xlink:href="#linearGradient4750"/><radialGradient id="radialGradient6349" cx="18.634" cy="17.486" r="40.693" fx="18.934" fy="17.81" gradientTransform="scale(1.036822,0.964486)" gradientUnits="userSpaceOnUse" xlink:href="#linearGradient4750"/><radialGradient id="radialGradient6351" cx="18.634" cy="17.486" r="40.693" fx="18.934" fy="17.81" gradientTransform="scale(1.036822,0.964486)" gradientUnits="userSpaceOnUse" xlink:href="#linearGradient4750"/><radialGradient id="radialGradient6353" cx="18.634" cy="17.486" r="40.693" fx="18.934" fy="17.81" gradientTransform="scale(1.036822,0.964486)" gradientUnits="userSpaceOnUse" xlink:href="#linearGradient4750"/><radialGradient id="radialGradient6355" cx="18.634" cy="17.486" r="40.693" fx="18.934" fy="17.81" gradientTransform="scale(1.036822,0.964486)" gradientUnits="userSpaceOnUse" xlink:href="#linearGradient4750"/><radialGradient id="radialGradient6357" cx="18.634" cy="17.486" r="40.693" fx="18.934" fy="17.81" gradientTransform="scale(1.036822,0.964486)" gradientUnits="userSpaceOnUse" xlink:href="#linearGradient4750"/><radialGradient id="radialGradient6359" cx="18.634" cy="17.486" r="40.693" fx="18.934" fy="17.81" gradientTransform="scale(1.036822,0.964486)" gradientUnits="userSpaceOnUse" xlink:href="#linearGradient4750"/><linearGradient id="linearGradient6367" x1="12.191" x2="17.85" y1="12.062" y2="31.675" gradientTransform="matrix(1.0700982,0.45056375,-0.59299804,1.4083825,5.9189768,-19.135845)" gradientUnits="userSpaceOnUse" xlink:href="#linearGradient6361"/><linearGradient id="linearGradient6375" x1="9.757" x2="17.85" y1="12.525" y2="31.675" gradientTransform="matrix(-1.0700982,-0.45056375,0.59299804,-1.4083825,41.751743,66.861837)" gradientUnits="userSpaceOnUse" xlink:href="#linearGradient6377"/></defs><metadata id="metadata4"/><g id="layer1"><path id="path3214" d="m 39.717511,23.959459 c 0,8.83334 -7.16097,15.994228 -15.993095,15.994228 -8.832933,0 -15.9934987,-7.160969 -15.9934987,-15.994228 0,-8.832933 7.1605657,-15.99309 15.9934987,-15.99309 8.832125,0 15.993095,7.160157 15.993095,15.99309 l 0,0 z" style="fill:url(#radialGradient3968);fill-opacity:1;fill-rule:nonzero;stroke:#39396c;stroke-width:2.44393611;stroke-miterlimit:4;stroke-opacity:1;stroke-dasharray:none"/><path id="path4348" d="m 30.708637,15.271057 a 12.929953,9.2934036 0 1 1 -25.859905,0 12.929953,9.2934036 0 1 1 25.859905,0 z" transform="matrix(0.68947839,0,0,0.8247967,11.614245,4.5887024)" style="opacity:.42159382;fill:url(#radialGradient4356);fill-opacity:1;stroke:none"/><g style="fill:#000;fill-opacity:.71345029;fill-rule:nonzero;stroke:none" id="g4136" transform="matrix(0.8102565,0,0,0.8102565,3.5594396,4.780808)"><g id="g4138"><g id="g4142"><path id="path4144" d="m 44.0713,20.7144 c 0,0.2627 0,0 0,0 l -0.5449,0.6172 c -0.334,-0.3936 -0.709,-0.7246 -1.0898,-1.0703 l -0.8359,0.123 -0.7637,-0.8633 0,1.0684 0.6543,0.4951 0.4355,0.4932 0.582,-0.6582 c 0.1465,0.2744 0.291,0.5488 0.4365,0.8232 l 0,0.8223 -0.6553,0.7402 -1.1992,0.8232 -0.9082,0.9063 -0.582,-0.6602 0.291,-0.7402 -0.5811,-0.6582 -0.9814,-2.0977 -0.8359,-0.9453 -0.2188,0.2461 0.3281,1.1934 0.6172,0.6992 c 0.3525,1.0176 0.7012,1.9902 1.1641,2.9629 0.7178,0 1.3945,-0.0762 2.1074,-0.166 l 0,0.5762 -0.8721,2.1392 -0.7998,0.9043 -0.6543,1.4004 c 0,0.7676 0,1.5352 0,2.3027 l 0.2188,0.9063 -0.3633,0.4102 -0.8008,0.4941 -0.8359,0.6992 0.6914,0.7813 -0.9453,0.8242 0.1816,0.5332 -1.418,1.6055 -0.9443,0 -0.7998,0.4941 -0.5098,0 0,-0.6582 -0.2168,-1.3184 c -0.2813,-0.8262 -0.5742,-1.6465 -0.8721,-2.4668 0,-0.6055 0.0361,-1.2051 0.0723,-1.8105 l 0.3643,-0.8223 -0.5098,-0.9883 0.0371,-1.3574 -0.6914,-0.7813 0.3457,-1.1309 -0.5625,-0.6382 -0.9824,0 -0.3271,-0.3701 -0.9814,0.6177 -0.3994,-0.4536 -0.9092,0.7817 c -0.6172,-0.6997 -1.2354,-1.3989 -1.8535,-2.0981 l -0.7266,-1.7285 0.6543,-0.9863 -0.3633,-0.4111 0.7988,-1.8936 c 0.6563,-0.8164 1.3418,-1.5996 2.0352,-2.3857 l 1.2363,-0.3291 1.3809,-0.1641 0.9453,0.2471 1.3447,1.3564 0.4727,-0.5342 0.6533,-0.082 1.2363,0.4111 0.9453,0 0.6543,-0.5762 0.291,-0.4111 -0.6553,-0.4111 -1.0908,-0.082 c -0.3027,-0.4199 -0.584,-0.8613 -0.9434,-1.2344 l -0.3643,0.1641 -0.1455,1.0703 -0.6543,-0.7402 -0.1445,-0.8242 -0.7266,-0.5742 -0.292,0 0.7275,0.8223 -0.291,0.7402 -0.5811,0.1641 0.3633,-0.7402 -0.6553,-0.3281 -0.5801,-0.6582 -1.0918,0.2461 -0.1445,0.3281 -0.6543,0.4121 -0.3633,0.9053 -0.9082,0.4521 -0.4004,-0.4521 -0.4355,0 0,-1.4814 0.9453,-0.4941 0.7266,0 -0.1465,-0.5752 -0.5801,-0.5762 0.9805,-0.2061 0.5449,-0.6162 0.4355,-0.7412 0.8008,0 -0.2188,-0.5752 0.5098,-0.3291 0,0.6582 1.0898,0.2461 1.0898,-0.9043 0.0732,-0.4121 0.9443,-0.6577 c -0.3418,0.0425 -0.6836,0.0737 -1.0176,0.1646 l 0,-0.7411 0.3633,-0.8228 -0.3633,0 -0.7984,0.7402 -0.2188,0.4116 0.2188,0.5767 -0.3643,0.9863 -0.5811,-0.3291 -0.5078,-0.5752 -0.8008,0.5752 -0.291,-1.3159 1.3809,-0.9048 0,-0.4941 0.873,-0.5757 1.3809,-0.3296 0.9453,0.3296 1.7441,0.3291 -0.4355,0.4932 -0.9453,0 0.9453,0.9873 0.7266,-0.8223 0.2207,-0.3618 c 0,0 2.7871,2.498 4.3799,5.2305 1.5928,2.7334 2.3408,5.9551 2.3408,6.6094 z"/></g></g><g id="g4146"><g id="g4150"><path id="path4152" d="m 26.0703,9.2363 -0.0732,0.4932 0.5098,0.3291 0.8711,-0.5757 -0.4355,-0.4937 -0.582,0.3296 -0.29,-0.0825"/></g></g><g id="g4154"><g id="g4158"><path id="path4160" d="m 26.8701,5.8633 -1.8906,-0.7407 -2.1797,0.2466 -2.6904,0.7402 -0.5088,0.4941 1.6719,1.1514 0,0.6582 -0.6543,0.6582 0.873,1.729 0.5801,-0.3301 0.7285,-1.1514 c 1.123,-0.3472 2.1299,-0.7407 3.1973,-1.2344 l 0.873,-2.2212"/></g></g><g id="g4162"><g id="g4166"><path id="path4168" d="m 28.833,12.7749 -0.291,-0.7412 -0.5098,0.165 0.1465,0.9043 0.6543,-0.3281"/></g></g><g id="g4170"><g id="g4174"><path id="path4176" d="m 29.123,12.6089 -0.1455,0.9883 0.7998,-0.165 0.5811,-0.5752 -0.5088,-0.4941 C 29.6787,11.9078 29.4824,11.483 29.2685,11.0465 l -0.4355,0 0,0.4932 0.29,0.3291 0,0.7402"/></g></g><g id="g4178"><g id="g4182"><path id="path4184" d="m 18.3652,28.2422 -0.582,-1.1523 -1.0903,-0.2466 -0.5815,-1.5625 -1.4536,0.1641 -1.2354,-0.9043 -1.3091,1.1514 0,0.1816 c -0.396,-0.1143 -0.8828,-0.1299 -1.2354,-0.3467 l -0.291,-0.8223 0,-0.9053 -0.8721,0.082 c 0.0728,-0.5762 0.145,-1.1514 0.2183,-1.7275 l -0.5093,0 -0.5083,0.6582 -0.5093,0.2461 -0.7271,-0.4102 -0.0728,-0.9053 0.1455,-0.9873 1.0908,-0.8223 0.8721,0 0.145,-0.4941 1.0903,0.2461 0.7998,0.9883 0.1455,-1.6465 1.3813,-1.1514 0.5088,-1.2344 1.0176,-0.4111 0.5815,-0.8223 1.3081,-0.248 0.6548,-0.9863 c -0.6543,0 -1.3086,0 -1.9629,0 l 1.2358,-0.5762 0.8716,0 1.2363,-0.4121 0.1455,-0.4922 -0.4365,-0.4121 -0.5088,-0.165 0.1455,-0.4932 -0.3633,-0.7402 -0.8726,0.3281 0.1455,-0.6577 -1.0176,-0.5762 -0.7993,1.3979 0.0723,0.4941 -0.7993,0.3301 -0.5093,1.0693 -0.2178,-0.9873 -1.3813,-0.5762 -0.2183,-0.7402 1.8174,-1.0703 0.7998,-0.7402 0.0728,-0.9048 -0.436,-0.2471 -0.5815,-0.0825 -0.3633,0.9053 c 0,0 -0.6079,0.1191 -0.7642,0.1577 -1.9961,1.8394 -6.0293,5.8101 -6.9663,13.3062 0.0371,0.1738 0.6792,1.1816 0.6792,1.1816 l 1.5264,0.9043 1.5264,0.4121 0.6548,0.8232 1.0171,0.7402 0.5815,-0.082 0.436,0.1963 0,0.1328 -0.5811,1.563 -0.4365,0.6582 0.1455,0.3301 -0.3633,1.2324 1.3086,2.3867 1.3081,1.1523 0.582,0.8223 -0.0732,1.7285 0.4365,0.9863 -0.4365,1.8926 c 0,0 -0.0342,-0.0117 0.0215,0.1777 0.0562,0.1895 2.3291,1.4512 2.4736,1.3438 0.144,-0.1094 0.2671,-0.2051 0.2671,-0.2051 l -0.145,-0.4102 0.5811,-0.5762 0.2183,-0.5762 0.9453,-0.3301 0.7266,-1.8105 -0.2178,-0.4922 0.5078,-0.7402 1.0908,-0.248 0.582,-1.3164 -0.1455,-1.6445 0.8721,-1.2344 0.1455,-1.2344 C 20.7331,29.4607 19.5495,28.8513 18.365,28.242"/></g></g><g id="g4186"><g id="g4190"><path id="path4192" d="m 16.7656,9.5649 0.7266,0.4937 0.582,0 0,-0.5757 -0.7266,-0.3291 -0.582,0.4111"/></g></g><g id="g4194"><g id="g4198"><path id="path4200" d="m 14.876,8.9072 -0.3638,0.9048 0.7271,0 0.3638,-0.8228 C 15.9166,8.7675 16.2286,8.5444 16.5479,8.331 l 0.7271,0.2471 c 0.4844,0.3291 0.9688,0.6582 1.4536,0.9868 L 19.4561,8.9072 18.6558,8.5781 18.292,7.8374 16.9111,7.6728 16.8383,7.2612 16.184,7.4262 15.8936,8.002 15.5298,7.2613 l -0.145,0.3291 0.0728,0.8228 -0.5816,0.494"/></g></g><g id="g4202"><g id="g4204" style="opacity:.75"><path id="path4206"/></g><g id="g4208"><path id="path4210"/></g></g><g id="g4212"><g id="g4214" style="opacity:.75"><path id="path4216"/></g><g id="g4218"><path id="path4220"/></g></g><g id="g4222"><g id="g4226"><path id="path4228" d="M 17.4922,6.8496 17.856,6.521 18.5831,6.3564 c 0.498,-0.2422 0.998,-0.4053 1.5264,-0.5762 l -0.29,-0.4937 -0.9385,0.1348 -0.4434,0.4419 -0.731,0.106 -0.6499,0.3052 -0.3159,0.1528 -0.1929,0.2583 0.9443,0.1641"/></g></g><g id="g4230"><g id="g4234"><path id="path4236" d="m 18.7285,14.6665 0.4365,-0.6582 -0.6548,-0.4932 0.2183,1.1514"/></g></g></g><g style="color:#000;fill:url(#radialGradient6261);fill-opacity:1;fill-rule:nonzero;stroke:none;stroke-width:1.01794541;marker:none;visibility:visible;display:inline;overflow:visible" id="g3216" transform="matrix(0.8102565,0,0,0.8102565,3.3928047,4.6141731)"><g style="color:#000;fill:url(#radialGradient6263);marker:none;visibility:visible;display:inline;overflow:visible" id="g3218"><g style="color:#000;fill:url(#radialGradient6267);marker:none;visibility:visible;display:inline;overflow:visible" id="g3222"><path style="color:#000;fill:url(#radialGradient6269);marker:none;visibility:visible;display:inline;overflow:visible" id="path3224" d="m 44.0713,20.7144 c 0,0.2627 0,0 0,0 l -0.5449,0.6172 c -0.334,-0.3936 -0.709,-0.7246 -1.0898,-1.0703 l -0.8359,0.123 -0.7637,-0.8633 0,1.0684 0.6543,0.4951 0.4355,0.4932 0.582,-0.6582 c 0.1465,0.2744 0.291,0.5488 0.4365,0.8232 l 0,0.8223 -0.6553,0.7402 -1.1992,0.8232 -0.9082,0.9063 -0.582,-0.6602 0.291,-0.7402 -0.5811,-0.6582 -0.9814,-2.0977 -0.8359,-0.9453 -0.2188,0.2461 0.3281,1.1934 0.6172,0.6992 c 0.3525,1.0176 0.7012,1.9902 1.1641,2.9629 0.7178,0 1.3945,-0.0762 2.1074,-0.166 l 0,0.5762 -0.8721,2.1392 -0.7998,0.9043 -0.6543,1.4004 c 0,0.7676 0,1.5352 0,2.3027 l 0.2188,0.9063 -0.3633,0.4102 -0.8008,0.4941 -0.8359,0.6992 0.6914,0.7813 -0.9453,0.8242 0.1816,0.5332 -1.418,1.6055 -0.9443,0 -0.7998,0.4941 -0.5098,0 0,-0.6582 -0.2168,-1.3184 c -0.2813,-0.8262 -0.5742,-1.6465 -0.8721,-2.4668 0,-0.6055 0.0361,-1.2051 0.0723,-1.8105 l 0.3643,-0.8223 -0.5098,-0.9883 0.0371,-1.3574 -0.6914,-0.7813 0.3457,-1.1309 -0.5625,-0.6382 -0.9824,0 -0.3271,-0.3701 -0.9814,0.6177 -0.3994,-0.4536 -0.9092,0.7817 c -0.6172,-0.6997 -1.2354,-1.3989 -1.8535,-2.0981 l -0.7266,-1.7285 0.6543,-0.9863 -0.3633,-0.4111 0.7988,-1.8936 c 0.6563,-0.8164 1.3418,-1.5996 2.0352,-2.3857 l 1.2363,-0.3291 1.3809,-0.1641 0.9453,0.2471 1.3447,1.3564 0.4727,-0.5342 0.6533,-0.082 1.2363,0.4111 0.9453,0 0.6543,-0.5762 0.291,-0.4111 -0.6553,-0.4111 -1.0908,-0.082 c -0.3027,-0.4199 -0.584,-0.8613 -0.9434,-1.2344 l -0.3643,0.1641 -0.1455,1.0703 -0.6543,-0.7402 -0.1445,-0.8242 -0.7266,-0.5742 -0.292,0 0.7275,0.8223 -0.291,0.7402 -0.5811,0.1641 0.3633,-0.7402 -0.6553,-0.3281 -0.5801,-0.6582 -1.0918,0.2461 -0.1445,0.3281 -0.6543,0.4121 -0.3633,0.9053 -0.9082,0.4521 -0.4004,-0.4521 -0.4355,0 0,-1.4814 0.9453,-0.4941 0.7266,0 -0.1465,-0.5752 -0.5801,-0.5762 0.9805,-0.2061 0.5449,-0.6162 0.4355,-0.7412 0.8008,0 -0.2188,-0.5752 0.5098,-0.3291 0,0.6582 1.0898,0.2461 1.0898,-0.9043 0.0732,-0.4121 0.9443,-0.6577 c -0.3418,0.0425 -0.6836,0.0737 -1.0176,0.1646 l 0,-0.7411 0.3633,-0.8228 -0.3633,0 -0.7984,0.7402 -0.2188,0.4116 0.2188,0.5767 -0.3643,0.9863 -0.5811,-0.3291 -0.5078,-0.5752 -0.8008,0.5752 -0.291,-1.3159 1.3809,-0.9048 0,-0.4941 0.873,-0.5757 1.3809,-0.3296 0.9453,0.3296 1.7441,0.3291 -0.4355,0.4932 -0.9453,0 0.9453,0.9873 0.7266,-0.8223 0.2207,-0.3618 c 0,0 2.7871,2.498 4.3799,5.2305 1.5928,2.7334 2.3408,5.9551 2.3408,6.6094 z"/></g></g><g style="color:#000;fill:url(#radialGradient6271);marker:none;visibility:visible;display:inline;overflow:visible" id="g3226"><g style="color:#000;fill:url(#radialGradient6275);marker:none;visibility:visible;display:inline;overflow:visible" id="g3230"><path style="color:#000;fill:url(#radialGradient6277);marker:none;visibility:visible;display:inline;overflow:visible" id="path3232" d="m 26.0703,9.2363 -0.0732,0.4932 0.5098,0.3291 0.8711,-0.5757 -0.4355,-0.4937 -0.582,0.3296 -0.29,-0.0825"/></g></g><g style="color:#000;fill:url(#radialGradient6279);marker:none;visibility:visible;display:inline;overflow:visible" id="g3234"><g style="color:#000;fill:url(#radialGradient6283);marker:none;visibility:visible;display:inline;overflow:visible" id="g3238"><path style="color:#000;fill:url(#radialGradient6285);marker:none;visibility:visible;display:inline;overflow:visible" id="path3240" d="m 26.8701,5.8633 -1.8906,-0.7407 -2.1797,0.2466 -2.6904,0.7402 -0.5088,0.4941 1.6719,1.1514 0,0.6582 -0.6543,0.6582 0.873,1.729 0.5801,-0.3301 0.7285,-1.1514 c 1.123,-0.3472 2.1299,-0.7407 3.1973,-1.2344 l 0.873,-2.2212"/></g></g><g style="color:#000;fill:url(#radialGradient6287);marker:none;visibility:visible;display:inline;overflow:visible" id="g3242"><g style="color:#000;fill:url(#radialGradient6291);marker:none;visibility:visible;display:inline;overflow:visible" id="g3246"><path style="color:#000;fill:url(#radialGradient6293);marker:none;visibility:visible;display:inline;overflow:visible" id="path3248" d="m 28.833,12.7749 -0.291,-0.7412 -0.5098,0.165 0.1465,0.9043 0.6543,-0.3281"/></g></g><g style="color:#000;fill:url(#radialGradient6295);marker:none;visibility:visible;display:inline;overflow:visible" id="g3250"><g style="color:#000;fill:url(#radialGradient6299);marker:none;visibility:visible;display:inline;overflow:visible" id="g3254"><path style="color:#000;fill:url(#radialGradient6301);marker:none;visibility:visible;display:inline;overflow:visible" id="path3256" d="m 29.123,12.6089 -0.1455,0.9883 0.7998,-0.165 0.5811,-0.5752 -0.5088,-0.4941 C 29.6787,11.9078 29.4824,11.483 29.2685,11.0465 l -0.4355,0 0,0.4932 0.29,0.3291 0,0.7402"/></g></g><g style="color:#000;fill:url(#radialGradient6303);marker:none;visibility:visible;display:inline;overflow:visible" id="g3258"><g style="color:#000;fill:url(#radialGradient6307);marker:none;visibility:visible;display:inline;overflow:visible" id="g3262"><path style="color:#000;fill:url(#radialGradient6309);marker:none;visibility:visible;display:inline;overflow:visible" id="path3264" d="m 18.3652,28.2422 -0.582,-1.1523 -1.0903,-0.2466 -0.5815,-1.5625 -1.4536,0.1641 -1.2354,-0.9043 -1.3091,1.1514 0,0.1816 c -0.396,-0.1143 -0.8828,-0.1299 -1.2354,-0.3467 l -0.291,-0.8223 0,-0.9053 -0.8721,0.082 c 0.0728,-0.5762 0.145,-1.1514 0.2183,-1.7275 l -0.5093,0 -0.5083,0.6582 -0.5093,0.2461 -0.7271,-0.4102 -0.0728,-0.9053 0.1455,-0.9873 1.0908,-0.8223 0.8721,0 0.145,-0.4941 1.0903,0.2461 0.7998,0.9883 0.1455,-1.6465 1.3813,-1.1514 0.5088,-1.2344 1.0176,-0.4111 0.5815,-0.8223 1.3081,-0.248 0.6548,-0.9863 c -0.6543,0 -1.3086,0 -1.9629,0 l 1.2358,-0.5762 0.8716,0 1.2363,-0.4121 0.1455,-0.4922 -0.4365,-0.4121 -0.5088,-0.165 0.1455,-0.4932 -0.3633,-0.7402 -0.8726,0.3281 0.1455,-0.6577 -1.0176,-0.5762 -0.7993,1.3979 0.0723,0.4941 -0.7993,0.3301 -0.5093,1.0693 -0.2178,-0.9873 -1.3813,-0.5762 -0.2183,-0.7402 1.8174,-1.0703 0.7998,-0.7402 0.0728,-0.9048 -0.436,-0.2471 -0.5815,-0.0825 -0.3633,0.9053 c 0,0 -0.6079,0.1191 -0.7642,0.1577 -1.9961,1.8394 -6.0293,5.8101 -6.9663,13.3062 0.0371,0.1738 0.6792,1.1816 0.6792,1.1816 l 1.5264,0.9043 1.5264,0.4121 0.6548,0.8232 1.0171,0.7402 0.5815,-0.082 0.436,0.1963 0,0.1328 -0.5811,1.563 -0.4365,0.6582 0.1455,0.3301 -0.3633,1.2324 1.3086,2.3867 1.3081,1.1523 0.582,0.8223 -0.0732,1.7285 0.4365,0.9863 -0.4365,1.8926 c 0,0 -0.0342,-0.0117 0.0215,0.1777 0.0562,0.1895 2.3291,1.4512 2.4736,1.3438 0.144,-0.1094 0.2671,-0.2051 0.2671,-0.2051 l -0.145,-0.4102 0.5811,-0.5762 0.2183,-0.5762 0.9453,-0.3301 0.7266,-1.8105 -0.2178,-0.4922 0.5078,-0.7402 1.0908,-0.248 0.582,-1.3164 -0.1455,-1.6445 0.8721,-1.2344 0.1455,-1.2344 C 20.7331,29.4607 19.5495,28.8513 18.365,28.242"/></g></g><g style="color:#000;fill:url(#radialGradient6311);marker:none;visibility:visible;display:inline;overflow:visible" id="g3266"><g style="color:#000;fill:url(#radialGradient6315);marker:none;visibility:visible;display:inline;overflow:visible" id="g3270"><path style="color:#000;fill:url(#radialGradient6317);marker:none;visibility:visible;display:inline;overflow:visible" id="path3272" d="m 16.7656,9.5649 0.7266,0.4937 0.582,0 0,-0.5757 -0.7266,-0.3291 -0.582,0.4111"/></g></g><g style="color:#000;fill:url(#radialGradient6319);marker:none;visibility:visible;display:inline;overflow:visible" id="g3274"><g style="color:#000;fill:url(#radialGradient6323);marker:none;visibility:visible;display:inline;overflow:visible" id="g3278"><path style="color:#000;fill:url(#radialGradient6325);marker:none;visibility:visible;display:inline;overflow:visible" id="path3280" d="m 14.876,8.9072 -0.3638,0.9048 0.7271,0 0.3638,-0.8228 C 15.9166,8.7675 16.2286,8.5444 16.5479,8.331 l 0.7271,0.2471 c 0.4844,0.3291 0.9688,0.6582 1.4536,0.9868 L 19.4561,8.9072 18.6558,8.5781 18.292,7.8374 16.9111,7.6728 16.8383,7.2612 16.184,7.4262 15.8936,8.002 15.5298,7.2613 l -0.145,0.3291 0.0728,0.8228 -0.5816,0.494"/></g></g><g style="color:#000;fill:url(#radialGradient6327);marker:none;visibility:visible;display:inline;overflow:visible" id="g3282"><g id="g3284" style="opacity:.75;color:#000;fill:url(#radialGradient6329);marker:none;visibility:visible;display:inline;overflow:visible"><path id="path3286" style="color:#000;fill:url(#radialGradient6331);marker:none;visibility:visible;display:inline;overflow:visible"/></g><g style="color:#000;fill:url(#radialGradient6333);marker:none;visibility:visible;display:inline;overflow:visible" id="g3288"><path style="color:#000;fill:url(#radialGradient6335);marker:none;visibility:visible;display:inline;overflow:visible" id="path3290"/></g></g><g style="color:#000;fill:url(#radialGradient6337);marker:none;visibility:visible;display:inline;overflow:visible" id="g3292"><g id="g3294" style="opacity:.75;color:#000;fill:url(#radialGradient6339);marker:none;visibility:visible;display:inline;overflow:visible"><path id="path3296" style="color:#000;fill:url(#radialGradient6341);marker:none;visibility:visible;display:inline;overflow:visible"/></g><g style="color:#000;fill:url(#radialGradient6343);marker:none;visibility:visible;display:inline;overflow:visible" id="g3298"><path style="color:#000;fill:url(#radialGradient6345);marker:none;visibility:visible;display:inline;overflow:visible" id="path3300"/></g></g><g style="color:#000;fill:url(#radialGradient6347);marker:none;visibility:visible;display:inline;overflow:visible" id="g3302"><g style="color:#000;fill:url(#radialGradient6351);marker:none;visibility:visible;display:inline;overflow:visible" id="g3306"><path style="color:#000;fill:url(#radialGradient6353);marker:none;visibility:visible;display:inline;overflow:visible" id="path3308" d="M 17.4922,6.8496 17.856,6.521 18.5831,6.3564 c 0.498,-0.2422 0.998,-0.4053 1.5264,-0.5762 l -0.29,-0.4937 -0.9385,0.1348 -0.4434,0.4419 -0.731,0.106 -0.6499,0.3052 -0.3159,0.1528 -0.1929,0.2583 0.9443,0.1641"/></g></g><g style="color:#000;fill:url(#radialGradient6355);marker:none;visibility:visible;display:inline;overflow:visible" id="g3310"><g style="color:#000;fill:url(#radialGradient6359);marker:none;visibility:visible;display:inline;overflow:visible" id="g3314"><path style="color:#000;fill:url(#radialGradient4756);marker:none;visibility:visible;display:inline;overflow:visible" id="path3316" d="m 18.7285,14.6665 0.4365,-0.6582 -0.6548,-0.4932 0.2183,1.1514"/></g></g></g><path id="path4122" d="m 38.905282,23.959489 c 0,8.384734 -6.797294,15.181954 -15.180875,15.181954 -8.384351,0 -15.1812622,-6.797297 -15.1812622,-15.181954 0,-8.38435 6.7969112,-15.1808741 15.1812622,-15.1808741 8.383581,0 15.180875,6.7965241 15.180875,15.1808741 l 0,0 z" style="fill:none;stroke:url(#radialGradient4132);stroke-width:1.22196805;stroke-miterlimit:4;stroke-opacity:1"/><path id="path5902" d="M 6.2668186,5.2995656 C -4.6808083,16.987166 -0.30249432,33.681819 15.014692,40.131104 5.3632936,36.067393 0.817355,24.909434 4.8810974,15.257963 7.7343412,8.48145 14.317462,3.9299694 21.664226,3.6456419 L 1.8664386,0.46611205 6.2668186,5.2995656 z" style="fill:url(#linearGradient6367);fill-opacity:1;fill-rule:nonzero;stroke:none"/><path style="fill:url(#linearGradient6375);fill-opacity:1;fill-rule:nonzero;stroke:none" id="path6369" d="M 41.403873,42.426449 C 52.351502,30.738847 47.973185,14.044197 32.656001,7.5949128 42.307398,11.658624 46.853338,22.816579 42.789595,32.46805 39.936352,39.244562 33.353231,43.796046 26.006466,44.080374 l 19.797788,3.179529 -4.400381,-4.833454 z"/></g></svg>