<svg xmlns="http://www.w3.org/2000/svg" xmlns:svg="http://www.w3.org/2000/svg" xmlns:xlink="http://www.w3.org/1999/xlink" id="svg11300" width="48" height="48" version="1.1"><defs id="defs3"><linearGradient id="linearGradient5048"><stop style="stop-color:black;stop-opacity:0" id="stop5050" offset="0"/><stop id="stop5056" offset=".5" style="stop-color:black;stop-opacity:1"/><stop style="stop-color:black;stop-opacity:0" id="stop5052" offset="1"/></linearGradient><linearGradient id="linearGradient4750"><stop style="stop-color:#fff;stop-opacity:0" id="stop4752" offset="0"/><stop id="stop4758" offset=".5" style="stop-color:#fff;stop-opacity:1"/><stop style="stop-color:#fff;stop-opacity:0" id="stop4754" offset="1"/></linearGradient><linearGradient id="linearGradient4728"><stop style="stop-color:#eeeeec;stop-opacity:1" id="stop4730" offset="0"/><stop style="stop-color:#fff;stop-opacity:1" id="stop4732" offset="1"/></linearGradient><linearGradient id="linearGradient4720"><stop style="stop-color:#000;stop-opacity:1" id="stop4722" offset="0"/><stop style="stop-color:#000;stop-opacity:0" id="stop4724" offset="1"/></linearGradient><linearGradient id="linearGradient4710"><stop style="stop-color:#f2f4f1;stop-opacity:1" id="stop4712" offset="0"/><stop style="stop-color:#d3d7cf;stop-opacity:1" id="stop4714" offset="1"/></linearGradient><radialGradient id="radialGradient4716" cx="24.5" cy="29.5" r="15.095" fx="24.5" fy="29.5" gradientTransform="matrix(2.598181,0,0,2.598181,-87.820685,-44.851711)" gradientUnits="userSpaceOnUse" xlink:href="#linearGradient4710"/><radialGradient id="radialGradient4726" cx="24.25" cy="39.813" r="17.375" fx="24.25" fy="39.813" gradientTransform="matrix(1,0,0,0.399281,0,23.91614)" gradientUnits="userSpaceOnUse" xlink:href="#linearGradient4720"/><linearGradient id="linearGradient4734" x1="24.095" x2="24.095" y1="12.595" y2="34.095" gradientTransform="matrix(1.1985203,0,0,1.1985203,-53.044096,-3.07682)" gradientUnits="userSpaceOnUse" xlink:href="#linearGradient4728"/><linearGradient id="linearGradient4756" x1="8.117" x2="9.067" y1="7.933" y2="6.784" gradientTransform="matrix(1.2061455,0,0,1.2061455,-4.7822723,-4.3287195)" gradientUnits="userSpaceOnUse" xlink:href="#linearGradient4750"/><linearGradient id="linearGradient4760" x1="38.293" x2="39.438" y1="6.717" y2="8.162" gradientTransform="matrix(1.2061455,0,0,1.2061455,-4.7822723,-4.3287195)" gradientUnits="userSpaceOnUse" xlink:href="#linearGradient4750"/></defs><metadata id="metadata4"/><g id="layer1"><rect style="color:#000;fill:#d3d7cf;fill-opacity:1;fill-rule:nonzero;stroke:#888a85;stroke-width:1.20614541;stroke-linecap:butt;stroke-linejoin:miter;stroke-miterlimit:4;stroke-opacity:1;stroke-dasharray:none;stroke-dashoffset:0;marker:none;visibility:visible;display:block;overflow:visible" id="rect2960" width="44.633" height="45.785" x="1.861" y="1.123" rx="5.469" ry="5.61"/><rect id="rect3835" width="34.986" height="34.986" x="-41.658" y="4.714" rx="4.287" ry="4.287" transform="scale(-1,1)" style="color:#000;fill:url(#radialGradient4716);fill-opacity:1;fill-rule:nonzero;stroke:url(#linearGradient4734);stroke-width:1.20614564;stroke-linecap:butt;stroke-linejoin:miter;stroke-miterlimit:4;stroke-opacity:1;stroke-dasharray:none;stroke-dashoffset:0;marker:none;visibility:visible;display:block;overflow:visible"/><path style="font-size:22.15084457px;font-style:normal;font-variant:normal;font-weight:400;font-stretch:normal;line-height:100%;writing-mode:lr-tb;text-anchor:start;fill:#000;fill-opacity:1;stroke:none;font-family:Segoe" id="text4736" d="m 34.348582,31.963969 -2.530823,0 0,-1.656776 c -1.008858,1.339337 -2.339497,2.009005 -3.991916,2.009005 -1.321947,0 -2.369932,-0.356577 -3.143962,-1.06973 -0.765335,-0.721848 -1.148003,-1.682865 -1.148002,-2.883051 -10e-7,-0.817512 0.156545,-1.526316 0.469639,-2.126413 0.321786,-0.600085 0.800119,-1.087116 1.435002,-1.461094 0.643573,-0.373962 1.478483,-0.626175 2.504732,-0.756637 l 3.874507,-0.521819 c -9e-6,-1.026235 -0.217434,-1.795918 -0.652274,-2.30905 -0.42616,-0.513112 -1.065388,-0.769672 -1.917685,-0.769684 -0.704462,1.2e-5 -1.45675,0.134815 -2.256869,0.40441 -0.791429,0.269618 -1.500232,0.660982 -2.126413,1.174093 l 0,-2.569959 c 1.626334,-0.817504 3.157,-1.226262 4.59201,-1.226276 1.582843,1.4e-5 2.791723,0.439211 3.626644,1.317594 0.843596,0.878407 1.265399,2.122076 1.26541,3.731008 l 0,8.714379 m -2.530823,-5.048599 0,-1.526322 c -2.174254,0.27831 -3.400527,0.439203 -3.678826,0.482683 -0.269611,0.0435 -0.604445,0.152203 -1.0045,0.326136 -0.39137,0.173946 -0.669673,0.404416 -0.834912,0.691411 -0.156549,0.287006 -0.234821,0.70446 -0.234818,1.252367 -3e-6,0.617488 0.217421,1.121912 0.652274,1.513274 0.443542,0.38267 1.02189,0.574004 1.735049,0.574002 0.887085,2e-6 1.669813,-0.317437 2.348186,-0.95232 0.678357,-0.634876 1.017538,-1.421953 1.017547,-2.361231 m 1.095821,-14.663119 -3.509234,4.278916 -1.735049,0 2.830869,-4.278916 2.413414,0"/><rect id="rect4740" width="42.342" height="43.435" x="3.006" y="2.298" rx="4.267" ry="4.267" style="opacity:.48888891;color:#000;fill:none;stroke:#fff;stroke-width:1.20614529;stroke-linecap:butt;stroke-linejoin:miter;stroke-miterlimit:4;stroke-opacity:1;stroke-dasharray:none;stroke-dashoffset:0;marker:none;visibility:visible;display:block;overflow:visible"/><path style="opacity:.48888891;color:#000;fill:#fff;fill-opacity:1;fill-rule:nonzero;stroke:none;stroke-width:1;marker:none;visibility:visible;display:block;overflow:visible" id="path4742" d="m 2.3792169,42.107884 c 0.075385,1.356914 1.583066,3.543052 3.3922843,3.995356 L 8.409945,39.46944 7.2791833,38.640215 2.3792169,42.107884 z"/><path id="path4744" d="m 45.951224,42.107884 c -0.07539,1.356914 -1.583065,3.543052 -3.392284,3.995356 l -2.638444,-6.6338 1.130762,-0.829225 4.899966,3.467669 z" style="opacity:.48888891;color:#000;fill:#fff;fill-opacity:1;fill-rule:nonzero;stroke:none;stroke-width:1;marker:none;visibility:visible;display:block;overflow:visible"/><path style="color:#000;fill:url(#linearGradient4760);fill-opacity:1;fill-rule:nonzero;stroke:none;stroke-width:1;marker:none;visibility:visible;display:block;overflow:visible" id="path4746" d="M 45.272767,4.2650674 C 44.745079,3.5866106 43.84047,2.3050809 42.634324,1.9281605 l -2.336907,3.0907479 1.130761,1.2061455 3.844589,-1.9599865 z"/><path id="path4748" d="M 2.9822896,4.2650674 C 3.5099783,3.5866106 4.3392034,2.3804651 5.5453489,2.0035445 L 7.8068718,5.2450606 6.9776467,6.4512062 2.9822896,4.2650674 z" style="color:#000;fill:url(#linearGradient4756);fill-opacity:1;fill-rule:nonzero;stroke:none;stroke-width:1;marker:none;visibility:visible;display:block;overflow:visible"/></g></svg>