<svg xmlns="http://www.w3.org/2000/svg" xmlns:svg="http://www.w3.org/2000/svg" xmlns:xlink="http://www.w3.org/1999/xlink" id="svg11300" width="48" height="48" version="1.1"><defs id="defs3"><radialGradient id="radialGradient6719" cx="605.714" cy="486.648" r="117.143" fx="605.714" fy="486.648" gradientTransform="matrix(-2.774389,0,0,1.969706,112.7623,-872.8854)" gradientUnits="userSpaceOnUse" xlink:href="#linearGradient5060"/><linearGradient id="linearGradient5060"><stop style="stop-color:black;stop-opacity:1" id="stop5062" offset="0"/><stop style="stop-color:black;stop-opacity:0" id="stop5064" offset="1"/></linearGradient><radialGradient id="radialGradient6717" cx="605.714" cy="486.648" r="117.143" fx="605.714" fy="486.648" gradientTransform="matrix(2.774389,0,0,1.969706,-1891.633,-872.8854)" gradientUnits="userSpaceOnUse" xlink:href="#linearGradient5060"/><linearGradient id="linearGradient5048"><stop style="stop-color:black;stop-opacity:0" id="stop5050" offset="0"/><stop id="stop5056" offset=".5" style="stop-color:black;stop-opacity:1"/><stop style="stop-color:black;stop-opacity:0" id="stop5052" offset="1"/></linearGradient><linearGradient id="linearGradient6715" x1="302.857" x2="302.857" y1="366.648" y2="609.505" gradientTransform="matrix(2.774389,0,0,1.969706,-1892.179,-872.8854)" gradientUnits="userSpaceOnUse" xlink:href="#linearGradient5048"/><linearGradient id="linearGradient3563"><stop style="stop-color:#fff;stop-opacity:1" id="stop3565" offset="0"/><stop style="stop-color:#939393;stop-opacity:1" id="stop3567" offset="1"/></linearGradient><linearGradient id="linearGradient3555"><stop style="stop-color:#f2f2f2;stop-opacity:1" id="stop3557" offset="0"/><stop style="stop-color:#d0d0d0;stop-opacity:1" id="stop3559" offset="1"/></linearGradient><linearGradient style="stroke-dasharray:none;stroke-miterlimit:4;stroke-width:1.2166667" id="aigrd1" x1="12.487" x2="31.081" y1="3.732" y2="36.033" gradientUnits="userSpaceOnUse"><stop id="stop16177" offset="0" style="stop-color:#d2d2d2;stroke-dasharray:none;stroke-miterlimit:4;stroke-width:1.2166667"/><stop id="stop16179" offset="1" style="stop-color:#ededed;stroke-dasharray:none;stroke-miterlimit:4;stroke-width:1.2166667"/></linearGradient><linearGradient id="linearGradient16280" x1="12.487" x2="31.081" y1="3.732" y2="36.033" gradientTransform="matrix(1.211383,0,0,1.211383,-2.021433,0.189894)" gradientUnits="userSpaceOnUse" xlink:href="#aigrd1"/><linearGradient id="linearGradient12129"><stop style="stop-color:#000;stop-opacity:1" id="stop12131" offset="0"/><stop style="stop-color:#000;stop-opacity:0" id="stop12133" offset="1"/></linearGradient><radialGradient id="radialGradient12135" cx="24.218" cy="41.636" r="22.097" fx="24.218" fy="41.636" gradientTransform="matrix(1.000000,0.000000,0.000000,0.184000,0.000000,33.97501)" gradientUnits="userSpaceOnUse" xlink:href="#linearGradient12129"/><radialGradient id="radialGradient3561" cx="26.728" cy="38.349" r="17.926" fx="26.728" fy="38.349" gradientTransform="matrix(1.848501,-1.547102e-23,1.227926e-24,1.289078,-21.29931,-13.68176)" gradientUnits="userSpaceOnUse" xlink:href="#linearGradient3555"/><linearGradient id="linearGradient3569" x1="28.107" x2="22.169" y1="34.869" y2="9.866" gradientTransform="translate(-1.056826e-16,0.883885)" gradientUnits="userSpaceOnUse" xlink:href="#linearGradient3563"/></defs><metadata id="metadata4"/><g id="layer1"><g id="g3692" transform="translate(72.831999,0.88388348)"><path id="rect2844" d="m -66.14647,8.2774808 c -1.292977,1.2962158 -1.185657,3.4960392 0.249232,4.9273422 l 10.022496,9.99745 -9.798825,9.823373 c -1.430238,1.43595 -1.534076,3.635935 -0.236903,4.92795 l 1.703603,1.699346 c 1.297174,1.292015 3.497104,1.186718 4.927343,-0.249232 l 9.798824,-9.823374 9.801249,9.776756 c 1.434889,1.431303 3.634974,1.533119 4.927951,0.236903 l 1.699345,-1.703603 c 1.292977,-1.296216 1.185657,-3.496039 -0.249232,-4.927343 l -9.823373,-9.798824 9.997449,-10.022496 c 1.430239,-1.43595 1.534077,-3.6359355 0.236903,-4.9279506 l -1.703603,-1.6993458 c -1.297173,-1.2920151 -3.497104,-1.1867175 -4.927342,0.2492326 l -9.99745,10.0224958 -10.000371,-9.9753802 c -1.434889,-1.4313033 -3.634974,-1.5331189 -4.92795,-0.236903 l -1.699346,1.703603 z" style="opacity:.9;fill:#bc0012;fill-opacity:1;fill-rule:nonzero;stroke:#fff;stroke-width:2.79999995;stroke-linejoin:round;stroke-miterlimit:4;stroke-opacity:1;stroke-dasharray:none"/><path id="rect2844-1" d="m -67.429317,7.3068131 c -1.68599,1.6902142 -1.817609,4.2781129 -0.279991,5.8118889 l 9.911872,9.887102 -9.865033,9.889747 c -1.532635,1.538755 -1.419001,4.148558 0.272463,5.833295 l 2.212472,2.206943 c 1.691464,1.684737 4.301323,1.796621 5.833958,0.257866 l 9.865033,-9.889747 9.889747,9.865033 c 1.537618,1.533775 4.12518,1.395682 5.81117,-0.294533 l 2.206943,-2.212471 c 1.68599,-1.690214 1.817609,-4.278113 0.279991,-5.811889 l -9.911872,-9.887102 9.887102,-9.911872 c 1.532635,-1.538755 1.396932,-4.1264329 -0.294532,-5.8111701 l -2.212472,-2.2069425 c -1.691464,-1.6847372 -4.301323,-1.796621 -5.833958,-0.2578666 l -9.865033,9.8897472 -9.889747,-9.8650328 c -1.537618,-1.5337755 -4.12518,-1.3956817 -5.81117,0.2945325 l -2.206943,2.2124714 z" style="opacity:.9;fill:none;stroke:#000;stroke-width:1.1820811;stroke-linejoin:round;stroke-miterlimit:4;stroke-opacity:1;stroke-dasharray:none"/></g></g></svg>