<svg xmlns="http://www.w3.org/2000/svg" xmlns:svg="http://www.w3.org/2000/svg" xmlns:xlink="http://www.w3.org/1999/xlink" id="svg97" width="48" height="48" version="1.1"><defs id="defs3"><radialGradient id="radialGradient5031" cx="605.714" cy="486.648" r="117.143" fx="605.714" fy="486.648" gradientTransform="matrix(-2.774389,0,0,1.969706,112.7623,-872.8854)" gradientUnits="userSpaceOnUse" xlink:href="#linearGradient5060"/><linearGradient id="linearGradient5060"><stop style="stop-color:black;stop-opacity:1" id="stop5062" offset="0"/><stop style="stop-color:black;stop-opacity:0" id="stop5064" offset="1"/></linearGradient><radialGradient id="radialGradient5029" cx="605.714" cy="486.648" r="117.143" fx="605.714" fy="486.648" gradientTransform="matrix(2.774389,0,0,1.969706,-1891.633,-872.8854)" gradientUnits="userSpaceOnUse" xlink:href="#linearGradient5060"/><linearGradient id="linearGradient5048"><stop style="stop-color:black;stop-opacity:0" id="stop5050" offset="0"/><stop id="stop5056" offset=".5" style="stop-color:black;stop-opacity:1"/><stop style="stop-color:black;stop-opacity:0" id="stop5052" offset="1"/></linearGradient><linearGradient id="linearGradient5027" x1="302.857" x2="302.857" y1="366.648" y2="609.505" gradientTransform="matrix(2.774389,0,0,1.969706,-1892.179,-872.8854)" gradientUnits="userSpaceOnUse" xlink:href="#linearGradient5048"/><linearGradient id="linearGradient9766"><stop style="stop-color:#6194cb;stop-opacity:1" id="stop9768" offset="0"/><stop style="stop-color:#729fcf;stop-opacity:1" id="stop9770" offset="1"/></linearGradient><linearGradient id="linearGradient3096"><stop id="stop3098" offset="0" style="stop-color:#424242;stop-opacity:1"/><stop id="stop3100" offset="1" style="stop-color:#777;stop-opacity:1"/></linearGradient><linearGradient id="linearGradient319"><stop id="stop320" offset="0" style="stop-color:#fff;stop-opacity:1"/><stop id="stop321" offset="1" style="stop-color:#fff;stop-opacity:0"/></linearGradient><linearGradient id="linearGradient1789"><stop style="stop-color:#202020;stop-opacity:1" id="stop1790" offset="0"/><stop style="stop-color:#b9b9b9;stop-opacity:1" id="stop1791" offset="1"/></linearGradient><radialGradient id="radialGradient238" cx="20.706" cy="37.518" r="30.905" fx="20.706" fy="37.518" gradientTransform="matrix(1.055022,-2.734504e-2,0.177703,1.190929,-3.572177,-7.125301)" gradientUnits="userSpaceOnUse" xlink:href="#linearGradient1789"/><linearGradient id="linearGradient3983"><stop style="stop-color:#fff;stop-opacity:.87628865" id="stop3984" offset="0"/><stop style="stop-color:#fffffe;stop-opacity:0" id="stop3985" offset="1"/></linearGradient><linearGradient id="linearGradient491" x1="6.23" x2="9.898" y1="13.773" y2="66.834" gradientTransform="matrix(1.516844,0.000000,0.000000,0.708978,-0.879573,-1.318166)" gradientUnits="userSpaceOnUse" xlink:href="#linearGradient3983"/><linearGradient id="linearGradient322" x1="13.036" x2="12.854" y1="32.567" y2="46.689" gradientTransform="matrix(1.317489,0.000000,0.000000,0.816256,-0.879573,-1.318166)" gradientUnits="userSpaceOnUse" xlink:href="#linearGradient319"/><linearGradient id="linearGradient3104" x1="18.113" x2="15.515" y1="31.368" y2="6.18" gradientUnits="userSpaceOnUse" xlink:href="#linearGradient3096"/><linearGradient id="linearGradient9772" x1="22.176" x2="22.065" y1="36.988" y2="32.05" gradientUnits="userSpaceOnUse" xlink:href="#linearGradient9766"/><linearGradient id="linearGradient12512"><stop id="stop12513" offset="0" style="stop-color:#fff;stop-opacity:1"/><stop id="stop12517" offset=".5" style="stop-color:#fff520;stop-opacity:.89108908"/><stop id="stop12514" offset="1" style="stop-color:#fff300;stop-opacity:0"/></linearGradient><radialGradient id="radialGradient1758" cx="55" cy="125" r="14.375" fx="55" fy="125" gradientUnits="userSpaceOnUse" xlink:href="#linearGradient12512"/><radialGradient id="radialGradient2894" cx="20.706" cy="37.518" r="30.905" fx="20.706" fy="37.518" gradientTransform="matrix(1.055022,-0.02734504,0.177703,1.190929,-3.572177,-7.125301)" gradientUnits="userSpaceOnUse" xlink:href="#linearGradient1789"/><linearGradient id="linearGradient2896" x1="18.113" x2="15.515" y1="31.368" y2="6.18" gradientUnits="userSpaceOnUse" xlink:href="#linearGradient3096"/><linearGradient id="linearGradient2898" x1="6.23" x2="9.898" y1="13.773" y2="66.834" gradientTransform="matrix(1.516844,0,0,0.708978,-0.879573,-1.318166)" gradientUnits="userSpaceOnUse" xlink:href="#linearGradient3983"/><linearGradient id="linearGradient2900" x1="22.176" x2="22.065" y1="36.988" y2="32.05" gradientUnits="userSpaceOnUse" xlink:href="#linearGradient9766"/><linearGradient id="linearGradient2902" x1="13.036" x2="12.854" y1="32.567" y2="46.689" gradientTransform="matrix(1.317489,0,0,0.816256,-0.879573,-1.318166)" gradientUnits="userSpaceOnUse" xlink:href="#linearGradient319"/><radialGradient id="radialGradient5106" cx="21.525" cy="30.439" r="18.888" fx="21.525" fy="30.439" gradientTransform="matrix(0,-1.2519025,47.292244,0,-1418.0196,57.3867)" gradientUnits="userSpaceOnUse" xlink:href="#linearGradient5190"/><linearGradient id="linearGradient5190"><stop style="stop-color:#dc9424;stop-opacity:1" id="stop5192" offset="0"/><stop style="stop-color:#f9dcb0;stop-opacity:1" id="stop5194" offset="1"/></linearGradient><radialGradient id="radialGradient3347" cx="21.525" cy="30.439" r="18.888" fx="21.525" fy="30.439" gradientTransform="matrix(0,-1.2519025,47.292244,0,-1418.0196,57.3867)" gradientUnits="userSpaceOnUse" xlink:href="#linearGradient5190"/></defs><metadata id="metadata4"/><g id="layer1"><g id="g2870" transform="matrix(1.0446982,0,0,1.0446982,-0.57811259,0.43656957)"><path style="fill:url(#radialGradient2894);fill-opacity:1;fill-rule:nonzero;stroke:url(#linearGradient2896);stroke-width:1;stroke-linecap:round;stroke-linejoin:round;stroke-miterlimit:4;stroke-opacity:1;stroke-dasharray:none" id="path216" d="m 4.5217805,38.687417 c 0.021796,0.416304 0.4599049,0.832609 0.8762095,0.832609 l 31.327021,0 c 0.416302,0 0.810812,-0.416305 0.789016,-0.832609 L 36.577584,11.460682 c -0.0218,-0.416303 -0.459897,-0.832616 -0.876201,-0.832616 l -13.270873,0 c -0.485057,0 -1.234473,-0.315589 -1.401644,-1.1066322 L 20.417475,6.6283628 C 20.262006,5.8926895 19.535261,5.5904766 19.118957,5.5904766 l -14.7788595,0 c -0.4163128,0 -0.8108208,0.4163041 -0.7890249,0.8326083 L 4.5217805,38.687417 z"/><path style="opacity:.11363633;color:#000;fill:#729fcf;fill-opacity:1;fill-rule:nonzero;stroke:#000;stroke-width:1.00000024;stroke-linecap:round;stroke-linejoin:round;stroke-miterlimit:4;stroke-opacity:1;stroke-dasharray:none;stroke-dashoffset:0;marker:none;visibility:visible;display:inline;overflow:visible" id="path9788" d="m 5.2265927,22.5625 30.2655803,0"/><path style="opacity:.11363633;color:#000;fill:#729fcf;fill-opacity:1;fill-rule:nonzero;stroke:#000;stroke-width:1.00000036;stroke-linecap:round;stroke-linejoin:round;stroke-miterlimit:4;stroke-opacity:1;stroke-dasharray:none;stroke-dashoffset:0;marker:none;visibility:visible;display:inline;overflow:visible" id="path9784" d="m 5.0421736,18.5625 30.4469304,0"/><path id="path9778" d="m 4.9806965,12.5625 30.5073605,0" style="opacity:.11363633;color:#000;fill:#729fcf;fill-opacity:1;fill-rule:nonzero;stroke:#000;stroke-width:1;stroke-linecap:round;stroke-linejoin:round;stroke-miterlimit:4;stroke-opacity:1;stroke-dasharray:none;stroke-dashoffset:0;marker:none;visibility:visible;display:inline;overflow:visible"/><path id="path9798" d="m 5.3861577,32.5625 30.1087233,0" style="opacity:.11363633;color:#000;fill:#729fcf;fill-opacity:1;fill-rule:nonzero;stroke:#000;stroke-width:1.00000036;stroke-linecap:round;stroke-linejoin:round;stroke-miterlimit:4;stroke-opacity:1;stroke-dasharray:none;stroke-dashoffset:0;marker:none;visibility:visible;display:inline;overflow:visible"/><path style="opacity:.11363633;color:#000;fill:#729fcf;fill-opacity:1;fill-rule:nonzero;stroke:#000;stroke-width:1.00000024;stroke-linecap:round;stroke-linejoin:round;stroke-miterlimit:4;stroke-opacity:1;stroke-dasharray:none;stroke-dashoffset:0;marker:none;visibility:visible;display:inline;overflow:visible" id="path9800" d="m 5.5091398,34.5625 29.9877532,0"/><path id="path9782" d="m 5.0421736,16.5625 30.4469304,0" style="opacity:.11363633;color:#000;fill:#729fcf;fill-opacity:1;fill-rule:nonzero;stroke:#000;stroke-width:1.00000036;stroke-linecap:round;stroke-linejoin:round;stroke-miterlimit:4;stroke-opacity:1;stroke-dasharray:none;stroke-dashoffset:0;marker:none;visibility:visible;display:inline;overflow:visible"/><path style="opacity:.11363633;color:#000;fill:#729fcf;fill-opacity:1;fill-rule:nonzero;stroke:#000;stroke-width:1.00000024;stroke-linecap:round;stroke-linejoin:round;stroke-miterlimit:4;stroke-opacity:1;stroke-dasharray:none;stroke-dashoffset:0;marker:none;visibility:visible;display:inline;overflow:visible" id="path9780" d="m 5.0114345,14.5625 30.4771455,0"/><path style="opacity:.11363633;color:#000;fill:#729fcf;fill-opacity:1;fill-rule:nonzero;stroke:#000;stroke-width:1.00000024;stroke-linecap:round;stroke-linejoin:round;stroke-miterlimit:4;stroke-opacity:1;stroke-dasharray:none;stroke-dashoffset:0;marker:none;visibility:visible;display:inline;overflow:visible" id="path9776" d="m 4.9220969,10.5625 15.2808151,0"/><path id="path9774" d="m 4.8737534,8.5624999 14.7837336,0" style="opacity:.11363633;color:#000;fill:#729fcf;fill-opacity:1;fill-rule:nonzero;stroke:#000;stroke-width:.99999982;stroke-linecap:round;stroke-linejoin:round;stroke-miterlimit:4;stroke-opacity:1;stroke-dasharray:none;stroke-dashoffset:0;marker:none;visibility:visible;display:inline;overflow:visible"/><path id="path9794" d="m 5.3246666,28.5625 30.1692094,0" style="opacity:.11363633;color:#000;fill:#729fcf;fill-opacity:1;fill-rule:nonzero;stroke:#000;stroke-width:1.00000036;stroke-linecap:round;stroke-linejoin:round;stroke-miterlimit:4;stroke-opacity:1;stroke-dasharray:none;stroke-dashoffset:0;marker:none;visibility:visible;display:inline;overflow:visible"/><path style="opacity:.11363633;color:#000;fill:#729fcf;fill-opacity:1;fill-rule:nonzero;stroke:#000;stroke-width:1;stroke-linecap:round;stroke-linejoin:round;stroke-miterlimit:4;stroke-opacity:1;stroke-dasharray:none;stroke-dashoffset:0;marker:none;visibility:visible;display:inline;overflow:visible" id="path9792" d="m 5.2880638,26.5625 30.2051202,0"/><path id="path9790" d="m 5.2265927,24.5625 30.2655803,0" style="opacity:.11363633;color:#000;fill:#729fcf;fill-opacity:1;fill-rule:nonzero;stroke:#000;stroke-width:1.00000024;stroke-linecap:round;stroke-linejoin:round;stroke-miterlimit:4;stroke-opacity:1;stroke-dasharray:none;stroke-dashoffset:0;marker:none;visibility:visible;display:inline;overflow:visible"/><path id="path9786" d="m 5.1958537,20.5625 30.2957953,0" style="opacity:.11363633;color:#000;fill:#729fcf;fill-opacity:1;fill-rule:nonzero;stroke:#000;stroke-width:1.00000012;stroke-linecap:round;stroke-linejoin:round;stroke-miterlimit:4;stroke-opacity:1;stroke-dasharray:none;stroke-dashoffset:0;marker:none;visibility:visible;display:inline;overflow:visible"/><path style="opacity:.11363633;color:#000;fill:#729fcf;fill-opacity:1;fill-rule:nonzero;stroke:#000;stroke-width:1.00000036;stroke-linecap:round;stroke-linejoin:round;stroke-miterlimit:4;stroke-opacity:1;stroke-dasharray:none;stroke-dashoffset:0;marker:none;visibility:visible;display:inline;overflow:visible" id="path9796" d="m 5.3246666,30.5625 30.1692094,0"/><path id="path9802" d="m 5.5091398,36.5625 29.9877532,0" style="opacity:.11363633;color:#000;fill:#729fcf;fill-opacity:1;fill-rule:nonzero;stroke:#000;stroke-width:1.00000024;stroke-linecap:round;stroke-linejoin:round;stroke-miterlimit:4;stroke-opacity:1;stroke-dasharray:none;stroke-dashoffset:0;marker:none;visibility:visible;display:inline;overflow:visible"/><path id="path219" d="m 6.068343,38.864023 c 0.016343,0.312228 -0.1809113,0.520379 -0.4985848,0.416303 l 0,0 C 5.2520766,39.176251 5.033027,38.968099 5.0166756,38.65587 L 4.068956,6.5913839 C 4.0526131,6.2791558 4.2341418,6.0906134 4.5463699,6.0906134 L 18.96842,6.0429196 c 0.312228,0 0.931943,0.3004727 1.132936,1.3221818 l 0.573489,2.8155346 C 20.247791,9.715379 20.255652,9.7010175 20.037287,9.0239299 L 19.631192,7.7647478 C 19.412142,7.0371009 18.932991,6.9328477 18.620763,6.9328477 l -12.8877741,0 c -0.3122276,0 -0.5094814,0.2081522 -0.4931306,0.5203887 L 6.1778636,38.968099 6.068343,38.864023 z" style="opacity:.45142858;color:#000;fill:url(#linearGradient2898);fill-opacity:1;fill-rule:nonzero;stroke:none;stroke-width:1.21380496;marker:none;visibility:visible;display:block;overflow:visible"/><g id="g220" transform="matrix(1.040764,0,0.05449252,1.040764,-8.670199,2.670594)" style="fill:#fff;fill-opacity:.75706213;fill-rule:nonzero;stroke:none"><path id="path221" d="m 42.417183,8.5151772 c 0.0051,-0.097113 -0.128161,-0.2469882 -0.235117,-0.2470056 l -13.031401,-0.00212 c 0,0 0.911714,0.5879545 2.201812,0.5962436 l 11.053497,0.07102 c 0.01109,-0.2117278 0.0027,-0.2560322 0.01121,-0.4181395 z" style="fill:#fff;fill-opacity:.50847461"/></g><path id="path233" d="m 39.783532,39.51062 c 1.143894,-0.04406 1.963076,-1.096299 2.047035,-2.321005 0.791787,-11.548687 1.65936,-21.231949 1.65936,-21.231949 0.07215,-0.247484 -0.167911,-0.494967 -0.48014,-0.494967 l -34.3711566,0 c 0,0 -1.8503191,21.866892 -1.8503191,21.866892 -0.1145551,0.982066 -0.4660075,1.804718 -1.5498358,2.183713 l 34.5450565,-0.0027 z" style="color:#000;fill:url(#linearGradient2900);fill-opacity:1;fill-rule:nonzero;stroke:#3465a4;stroke-width:1;stroke-linecap:butt;stroke-linejoin:round;stroke-miterlimit:4;stroke-opacity:1;stroke-dasharray:none;stroke-dashoffset:0;marker:none;visibility:visible;display:block"/><path style="opacity:.46590911;fill:none;stroke:url(#linearGradient2902);stroke-width:.9999997px;stroke-linecap:round;stroke-linejoin:miter;stroke-opacity:1" id="path304" d="m 9.6202444,16.463921 32.7910986,0.06481 -1.574046,20.001979 c -0.08432,1.071511 -0.450678,1.428215 -1.872656,1.428215 -1.871502,0 -28.677968,-0.03241 -31.394742,-0.03241 0.2335983,-0.320811 0.3337557,-0.988623 0.3350963,-1.004612 L 9.6202444,16.463921 z"/><path style="fill:#fff;fill-opacity:.0892857;fill-rule:evenodd;stroke:none" id="path323" d="M 9.6202481,16.223182 8.4536014,31.866453 c 0,0 8.2961546,-4.148078 18.6663476,-4.148078 10.370193,0 15.55529,-11.495193 15.55529,-11.495193 l -33.0549909,0 z"/></g><path style="color:#000;fill:url(#radialGradient3347);fill-opacity:1;fill-rule:nonzero;stroke:#ce5c00;stroke-width:3.24622941;stroke-linecap:butt;stroke-linejoin:miter;stroke-miterlimit:4;stroke-opacity:1;stroke-dasharray:none;stroke-dashoffset:0;marker:none;visibility:visible;display:inline;overflow:visible;enable-background:accumulate" id="path4547" d="M 35.099492,35.723338 26.703003,33.840596 22.097088,41.10911 17.491173,33.840597 9.094684,35.723338 10.977425,27.32685 3.7089119,22.720934 10.977425,18.115019 9.0946839,9.71853 l 8.3964881,1.882741 4.605916,-7.2685131 4.605914,7.2685131 8.39649,-1.882741 -1.882742,8.396488 7.268514,4.605916 -7.268513,4.605915 z" transform="matrix(0.49658527,0,0,0.48920145,23.687129,4.8133987)"/></g></svg>