<svg xmlns="http://www.w3.org/2000/svg" xmlns:svg="http://www.w3.org/2000/svg" xmlns:xlink="http://www.w3.org/1999/xlink" id="svg3440" width="48" height="48" version="1.1"><defs id="defs3"><linearGradient id="linearGradient4750"><stop style="stop-color:#fff;stop-opacity:1" id="stop4752" offset="0"/><stop style="stop-color:#fefefe;stop-opacity:1" id="stop4758" offset=".379"/><stop style="stop-color:#1d1d1d;stop-opacity:1" id="stop4754" offset="1"/></linearGradient><linearGradient id="linearGradient4350"><stop style="stop-color:#fff;stop-opacity:1" id="stop4352" offset="0"/><stop style="stop-color:#fff;stop-opacity:0" id="stop4354" offset="1"/></linearGradient><linearGradient id="linearGradient4126"><stop style="stop-color:#fff;stop-opacity:1" id="stop4128" offset="0"/><stop style="stop-color:#fff;stop-opacity:.16494845" id="stop4130" offset="1"/></linearGradient><linearGradient id="linearGradient4114"><stop style="stop-color:#000;stop-opacity:1" id="stop4116" offset="0"/><stop style="stop-color:#000;stop-opacity:0" id="stop4118" offset="1"/></linearGradient><linearGradient id="linearGradient3962"><stop style="stop-color:#d3e9ff;stop-opacity:1" id="stop3964" offset="0"/><stop style="stop-color:#d3e9ff;stop-opacity:1" id="stop4134" offset=".155"/><stop style="stop-color:#4074ae;stop-opacity:1" id="stop4346" offset=".75"/><stop style="stop-color:#36486c;stop-opacity:1" id="stop3966" offset="1"/></linearGradient><radialGradient id="radialGradient3968" cx="18.248" cy="15.716" r="29.993" fx="18.248" fy="15.716" gradientTransform="matrix(1.1651729,0,0,1.1651985,-4.4871345,-3.4510105)" gradientUnits="userSpaceOnUse" xlink:href="#linearGradient3962"/><radialGradient id="radialGradient4120" cx="15.116" cy="63.965" r="12.289" fx="15.116" fy="63.965" gradientTransform="scale(1.643990,0.608276)" gradientUnits="userSpaceOnUse" xlink:href="#linearGradient4114"/><radialGradient id="radialGradient4132" cx="15.601" cy="12.142" r="43.527" fx="15.601" fy="12.142" gradientTransform="matrix(1.1651729,0,0,1.1651985,-4.4871345,-3.4510105)" gradientUnits="userSpaceOnUse" xlink:href="#linearGradient4126"/><radialGradient id="radialGradient4356" cx="11.827" cy="10.476" r="32.665" fx="11.827" fy="10.476" gradientTransform="scale(1.179536,0.847791)" gradientUnits="userSpaceOnUse" xlink:href="#linearGradient4350"/><radialGradient id="radialGradient4756" cx="18.634" cy="17.486" r="40.693" fx="18.934" fy="17.81" gradientTransform="scale(1.036822,0.964486)" gradientUnits="userSpaceOnUse" xlink:href="#linearGradient4750"/><radialGradient id="radialGradient1460" cx="18.634" cy="17.486" r="40.693" fx="18.934" fy="17.81" gradientTransform="scale(1.036822,0.964486)" gradientUnits="userSpaceOnUse" xlink:href="#linearGradient4750"/><radialGradient id="radialGradient1462" cx="18.634" cy="17.486" r="40.693" fx="18.934" fy="17.81" gradientTransform="scale(1.036822,0.964486)" gradientUnits="userSpaceOnUse" xlink:href="#linearGradient4750"/><radialGradient id="radialGradient1466" cx="18.634" cy="17.486" r="40.693" fx="18.934" fy="17.81" gradientTransform="scale(1.036822,0.964486)" gradientUnits="userSpaceOnUse" xlink:href="#linearGradient4750"/><radialGradient id="radialGradient1468" cx="18.634" cy="17.486" r="40.693" fx="18.934" fy="17.81" gradientTransform="scale(1.036822,0.964486)" gradientUnits="userSpaceOnUse" xlink:href="#linearGradient4750"/><radialGradient id="radialGradient1470" cx="18.634" cy="17.486" r="40.693" fx="18.934" fy="17.81" gradientTransform="scale(1.036822,0.964486)" gradientUnits="userSpaceOnUse" xlink:href="#linearGradient4750"/><radialGradient id="radialGradient1474" cx="18.634" cy="17.486" r="40.693" fx="18.934" fy="17.81" gradientTransform="scale(1.036822,0.964486)" gradientUnits="userSpaceOnUse" xlink:href="#linearGradient4750"/><radialGradient id="radialGradient1476" cx="18.634" cy="17.486" r="40.693" fx="18.934" fy="17.81" gradientTransform="scale(1.036822,0.964486)" gradientUnits="userSpaceOnUse" xlink:href="#linearGradient4750"/><radialGradient id="radialGradient1478" cx="18.634" cy="17.486" r="40.693" fx="18.934" fy="17.81" gradientTransform="scale(1.036822,0.964486)" gradientUnits="userSpaceOnUse" xlink:href="#linearGradient4750"/><radialGradient id="radialGradient1482" cx="18.634" cy="17.486" r="40.693" fx="18.934" fy="17.81" gradientTransform="scale(1.036822,0.964486)" gradientUnits="userSpaceOnUse" xlink:href="#linearGradient4750"/><radialGradient id="radialGradient1484" cx="18.634" cy="17.486" r="40.693" fx="18.934" fy="17.81" gradientTransform="scale(1.036822,0.964486)" gradientUnits="userSpaceOnUse" xlink:href="#linearGradient4750"/><radialGradient id="radialGradient1486" cx="18.634" cy="17.486" r="40.693" fx="18.934" fy="17.81" gradientTransform="scale(1.036822,0.964486)" gradientUnits="userSpaceOnUse" xlink:href="#linearGradient4750"/><radialGradient id="radialGradient1490" cx="18.634" cy="17.486" r="40.693" fx="18.934" fy="17.81" gradientTransform="scale(1.036822,0.964486)" gradientUnits="userSpaceOnUse" xlink:href="#linearGradient4750"/><radialGradient id="radialGradient1492" cx="18.634" cy="17.486" r="40.693" fx="18.934" fy="17.81" gradientTransform="scale(1.036822,0.964486)" gradientUnits="userSpaceOnUse" xlink:href="#linearGradient4750"/><radialGradient id="radialGradient1494" cx="18.634" cy="17.486" r="40.693" fx="18.934" fy="17.81" gradientTransform="scale(1.036822,0.964486)" gradientUnits="userSpaceOnUse" xlink:href="#linearGradient4750"/><radialGradient id="radialGradient1498" cx="18.634" cy="17.486" r="40.693" fx="18.934" fy="17.81" gradientTransform="scale(1.036822,0.964486)" gradientUnits="userSpaceOnUse" xlink:href="#linearGradient4750"/><radialGradient id="radialGradient1500" cx="18.634" cy="17.486" r="40.693" fx="18.934" fy="17.81" gradientTransform="scale(1.036822,0.964486)" gradientUnits="userSpaceOnUse" xlink:href="#linearGradient4750"/><radialGradient id="radialGradient1502" cx="18.634" cy="17.486" r="40.693" fx="18.934" fy="17.81" gradientTransform="scale(1.036822,0.964486)" gradientUnits="userSpaceOnUse" xlink:href="#linearGradient4750"/><radialGradient id="radialGradient1506" cx="18.634" cy="17.486" r="40.693" fx="18.934" fy="17.81" gradientTransform="scale(1.036822,0.964486)" gradientUnits="userSpaceOnUse" xlink:href="#linearGradient4750"/><radialGradient id="radialGradient1508" cx="18.634" cy="17.486" r="40.693" fx="18.934" fy="17.81" gradientTransform="scale(1.036822,0.964486)" gradientUnits="userSpaceOnUse" xlink:href="#linearGradient4750"/><radialGradient id="radialGradient1510" cx="18.634" cy="17.486" r="40.693" fx="18.934" fy="17.81" gradientTransform="scale(1.036822,0.964486)" gradientUnits="userSpaceOnUse" xlink:href="#linearGradient4750"/><radialGradient id="radialGradient1514" cx="18.634" cy="17.486" r="40.693" fx="18.934" fy="17.81" gradientTransform="scale(1.036822,0.964486)" gradientUnits="userSpaceOnUse" xlink:href="#linearGradient4750"/><radialGradient id="radialGradient1516" cx="18.634" cy="17.486" r="40.693" fx="18.934" fy="17.81" gradientTransform="scale(1.036822,0.964486)" gradientUnits="userSpaceOnUse" xlink:href="#linearGradient4750"/><radialGradient id="radialGradient1518" cx="18.634" cy="17.486" r="40.693" fx="18.934" fy="17.81" gradientTransform="scale(1.036822,0.964486)" gradientUnits="userSpaceOnUse" xlink:href="#linearGradient4750"/><radialGradient id="radialGradient1522" cx="18.634" cy="17.486" r="40.693" fx="18.934" fy="17.81" gradientTransform="scale(1.036822,0.964486)" gradientUnits="userSpaceOnUse" xlink:href="#linearGradient4750"/><radialGradient id="radialGradient1524" cx="18.634" cy="17.486" r="40.693" fx="18.934" fy="17.81" gradientTransform="scale(1.036822,0.964486)" gradientUnits="userSpaceOnUse" xlink:href="#linearGradient4750"/><radialGradient id="radialGradient1526" cx="18.634" cy="17.486" r="40.693" fx="18.934" fy="17.81" gradientTransform="scale(1.036822,0.964486)" gradientUnits="userSpaceOnUse" xlink:href="#linearGradient4750"/><radialGradient id="radialGradient1528" cx="18.634" cy="17.486" r="40.693" fx="18.934" fy="17.81" gradientTransform="scale(1.036822,0.964486)" gradientUnits="userSpaceOnUse" xlink:href="#linearGradient4750"/><radialGradient id="radialGradient1530" cx="18.634" cy="17.486" r="40.693" fx="18.934" fy="17.81" gradientTransform="scale(1.036822,0.964486)" gradientUnits="userSpaceOnUse" xlink:href="#linearGradient4750"/><radialGradient id="radialGradient1532" cx="18.634" cy="17.486" r="40.693" fx="18.934" fy="17.81" gradientTransform="scale(1.036822,0.964486)" gradientUnits="userSpaceOnUse" xlink:href="#linearGradient4750"/><radialGradient id="radialGradient1534" cx="18.634" cy="17.486" r="40.693" fx="18.934" fy="17.81" gradientTransform="scale(1.036822,0.964486)" gradientUnits="userSpaceOnUse" xlink:href="#linearGradient4750"/><radialGradient id="radialGradient1536" cx="18.634" cy="17.486" r="40.693" fx="18.934" fy="17.81" gradientTransform="scale(1.036822,0.964486)" gradientUnits="userSpaceOnUse" xlink:href="#linearGradient4750"/><radialGradient id="radialGradient1538" cx="18.634" cy="17.486" r="40.693" fx="18.934" fy="17.81" gradientTransform="scale(1.036822,0.964486)" gradientUnits="userSpaceOnUse" xlink:href="#linearGradient4750"/><radialGradient id="radialGradient1540" cx="18.634" cy="17.486" r="40.693" fx="18.934" fy="17.81" gradientTransform="scale(1.036822,0.964486)" gradientUnits="userSpaceOnUse" xlink:href="#linearGradient4750"/><radialGradient id="radialGradient1542" cx="18.634" cy="17.486" r="40.693" fx="18.934" fy="17.81" gradientTransform="scale(1.036822,0.964486)" gradientUnits="userSpaceOnUse" xlink:href="#linearGradient4750"/><radialGradient id="radialGradient1544" cx="18.634" cy="17.486" r="40.693" fx="18.934" fy="17.81" gradientTransform="scale(1.036822,0.964486)" gradientUnits="userSpaceOnUse" xlink:href="#linearGradient4750"/><radialGradient id="radialGradient1546" cx="18.634" cy="17.486" r="40.693" fx="18.934" fy="17.81" gradientTransform="scale(1.036822,0.964486)" gradientUnits="userSpaceOnUse" xlink:href="#linearGradient4750"/><radialGradient id="radialGradient1550" cx="18.634" cy="17.486" r="40.693" fx="18.934" fy="17.81" gradientTransform="scale(1.036822,0.964486)" gradientUnits="userSpaceOnUse" xlink:href="#linearGradient4750"/><radialGradient id="radialGradient1552" cx="18.634" cy="17.486" r="40.693" fx="18.934" fy="17.81" gradientTransform="scale(1.036822,0.964486)" gradientUnits="userSpaceOnUse" xlink:href="#linearGradient4750"/><radialGradient id="radialGradient1554" cx="18.634" cy="17.486" r="40.693" fx="18.934" fy="17.81" gradientTransform="scale(1.036822,0.964486)" gradientUnits="userSpaceOnUse" xlink:href="#linearGradient4750"/><radialGradient id="radialGradient1558" cx="18.634" cy="17.486" r="40.693" fx="18.934" fy="17.81" gradientTransform="scale(1.036822,0.964486)" gradientUnits="userSpaceOnUse" xlink:href="#linearGradient4750"/></defs><metadata id="metadata4"/><g id="layer1"><path style="fill:url(#radialGradient3968);fill-opacity:1;fill-rule:nonzero;stroke:#39396c;stroke-width:1.16518569;stroke-miterlimit:4;stroke-opacity:1" id="path3214" d="m 46.734257,23.913957 c 0,12.47881 -10.116262,22.594958 -22.593356,22.594958 -12.478237,0 -22.5939276,-10.116262 -22.5939276,-22.594958 0,-12.478238 10.1156906,-22.5933554 22.5939276,-22.5933554 12.477094,0 22.593356,10.1151174 22.593356,22.5933554 l 0,0 z"/><g id="g4136" transform="matrix(1.1446446,0,0,1.1446446,-4.3460549,-3.1796224)" style="fill:#000;fill-opacity:.71345029;fill-rule:nonzero;stroke:none"><g id="g4138"><g id="g4142"><path id="path4144" d="m 44.0713,20.7144 c 0,0.2627 0,0 0,0 l -0.5449,0.6172 c -0.334,-0.3936 -0.709,-0.7246 -1.0898,-1.0703 l -0.8359,0.123 -0.7637,-0.8633 0,1.0684 0.6543,0.4951 0.4355,0.4932 0.582,-0.6582 c 0.1465,0.2744 0.291,0.5488 0.4365,0.8232 l 0,0.8223 -0.6553,0.7402 -1.1992,0.8232 -0.9082,0.9063 -0.582,-0.6602 0.291,-0.7402 -0.5811,-0.6582 -0.9814,-2.0977 -0.8359,-0.9453 -0.2188,0.2461 0.3281,1.1934 0.6172,0.6992 c 0.3525,1.0176 0.7012,1.9902 1.1641,2.9629 0.7178,0 1.3945,-0.0762 2.1074,-0.166 l 0,0.5762 -0.8721,2.1392 -0.7998,0.9043 -0.6543,1.4004 c 0,0.7676 0,1.5352 0,2.3027 l 0.2188,0.9063 -0.3633,0.4102 -0.8008,0.4941 -0.8359,0.6992 0.6914,0.7813 -0.9453,0.8242 0.1816,0.5332 -1.418,1.6055 -0.9443,0 -0.7998,0.4941 -0.5098,0 0,-0.6582 -0.2168,-1.3184 c -0.2813,-0.8262 -0.5742,-1.6465 -0.8721,-2.4668 0,-0.6055 0.0361,-1.2051 0.0723,-1.8105 l 0.3643,-0.8223 -0.5098,-0.9883 0.0371,-1.3574 -0.6914,-0.7813 0.3457,-1.1309 -0.5625,-0.6382 -0.9824,0 -0.3271,-0.3701 -0.9814,0.6177 -0.3994,-0.4536 -0.9092,0.7817 c -0.6172,-0.6997 -1.2354,-1.3989 -1.8535,-2.0981 l -0.7266,-1.7285 0.6543,-0.9863 -0.3633,-0.4111 0.7988,-1.8936 c 0.6563,-0.8164 1.3418,-1.5996 2.0352,-2.3857 l 1.2363,-0.3291 1.3809,-0.1641 0.9453,0.2471 1.3447,1.3564 0.4727,-0.5342 0.6533,-0.082 1.2363,0.4111 0.9453,0 0.6543,-0.5762 0.291,-0.4111 -0.6553,-0.4111 -1.0908,-0.082 c -0.3027,-0.4199 -0.584,-0.8613 -0.9434,-1.2344 l -0.3643,0.1641 -0.1455,1.0703 -0.6543,-0.7402 -0.1445,-0.8242 -0.7266,-0.5742 -0.292,0 0.7275,0.8223 -0.291,0.7402 -0.5811,0.1641 0.3633,-0.7402 -0.6553,-0.3281 -0.5801,-0.6582 -1.0918,0.2461 -0.1445,0.3281 -0.6543,0.4121 -0.3633,0.9053 -0.9082,0.4521 -0.4004,-0.4521 -0.4355,0 0,-1.4814 0.9453,-0.4941 0.7266,0 -0.1465,-0.5752 -0.5801,-0.5762 0.9805,-0.2061 0.5449,-0.6162 0.4355,-0.7412 0.8008,0 -0.2188,-0.5752 0.5098,-0.3291 0,0.6582 1.0898,0.2461 1.0898,-0.9043 0.0732,-0.4121 0.9443,-0.6577 c -0.3418,0.0425 -0.6836,0.0737 -1.0176,0.1646 l 0,-0.7411 0.3633,-0.8228 -0.3633,0 -0.7984,0.7402 -0.2188,0.4116 0.2188,0.5767 -0.3643,0.9863 -0.5811,-0.3291 -0.5078,-0.5752 -0.8008,0.5752 -0.291,-1.3159 1.3809,-0.9048 0,-0.4941 0.873,-0.5757 1.3809,-0.3296 0.9453,0.3296 1.7441,0.3291 -0.4355,0.4932 -0.9453,0 0.9453,0.9873 0.7266,-0.8223 0.2207,-0.3618 c 0,0 2.7871,2.498 4.3799,5.2305 1.5928,2.7334 2.3408,5.9551 2.3408,6.6094 z"/></g></g><g id="g4146"><g id="g4150"><path id="path4152" d="m 26.0703,9.2363 -0.0732,0.4932 0.5098,0.3291 0.8711,-0.5757 -0.4355,-0.4937 -0.582,0.3296 -0.29,-0.0825"/></g></g><g id="g4154"><g id="g4158"><path id="path4160" d="m 26.8701,5.8633 -1.8906,-0.7407 -2.1797,0.2466 -2.6904,0.7402 -0.5088,0.4941 1.6719,1.1514 0,0.6582 -0.6543,0.6582 0.873,1.729 0.5801,-0.3301 0.7285,-1.1514 c 1.123,-0.3472 2.1299,-0.7407 3.1973,-1.2344 l 0.873,-2.2212"/></g></g><g id="g4162"><g id="g4166"><path id="path4168" d="m 28.833,12.7749 -0.291,-0.7412 -0.5098,0.165 0.1465,0.9043 0.6543,-0.3281"/></g></g><g id="g4170"><g id="g4174"><path id="path4176" d="m 29.123,12.6089 -0.1455,0.9883 0.7998,-0.165 0.5811,-0.5752 -0.5088,-0.4941 C 29.6787,11.9078 29.4824,11.483 29.2685,11.0465 l -0.4355,0 0,0.4932 0.29,0.3291 0,0.7402"/></g></g><g id="g4178"><g id="g4182"><path id="path4184" d="m 18.3652,28.2422 -0.582,-1.1523 -1.0903,-0.2466 -0.5815,-1.5625 -1.4536,0.1641 -1.2354,-0.9043 -1.3091,1.1514 0,0.1816 c -0.396,-0.1143 -0.8828,-0.1299 -1.2354,-0.3467 l -0.291,-0.8223 0,-0.9053 -0.8721,0.082 c 0.0728,-0.5762 0.145,-1.1514 0.2183,-1.7275 l -0.5093,0 -0.5083,0.6582 -0.5093,0.2461 -0.7271,-0.4102 -0.0728,-0.9053 0.1455,-0.9873 1.0908,-0.8223 0.8721,0 0.145,-0.4941 1.0903,0.2461 0.7998,0.9883 0.1455,-1.6465 1.3813,-1.1514 0.5088,-1.2344 1.0176,-0.4111 0.5815,-0.8223 1.3081,-0.248 0.6548,-0.9863 c -0.6543,0 -1.3086,0 -1.9629,0 l 1.2358,-0.5762 0.8716,0 1.2363,-0.4121 0.1455,-0.4922 -0.4365,-0.4121 -0.5088,-0.165 0.1455,-0.4932 -0.3633,-0.7402 -0.8726,0.3281 0.1455,-0.6577 -1.0176,-0.5762 -0.7993,1.3979 0.0723,0.4941 -0.7993,0.3301 -0.5093,1.0693 -0.2178,-0.9873 -1.3813,-0.5762 -0.2183,-0.7402 1.8174,-1.0703 0.7998,-0.7402 0.0728,-0.9048 -0.436,-0.2471 -0.5815,-0.0825 -0.3633,0.9053 c 0,0 -0.6079,0.1191 -0.7642,0.1577 -1.9961,1.8394 -6.0293,5.8101 -6.9663,13.3062 0.0371,0.1738 0.6792,1.1816 0.6792,1.1816 l 1.5264,0.9043 1.5264,0.4121 0.6548,0.8232 1.0171,0.7402 0.5815,-0.082 0.436,0.1963 0,0.1328 -0.5811,1.563 -0.4365,0.6582 0.1455,0.3301 -0.3633,1.2324 1.3086,2.3867 1.3081,1.1523 0.582,0.8223 -0.0732,1.7285 0.4365,0.9863 -0.4365,1.8926 c 0,0 -0.0342,-0.0117 0.0215,0.1777 0.0562,0.1895 2.3291,1.4512 2.4736,1.3438 0.144,-0.1094 0.2671,-0.2051 0.2671,-0.2051 l -0.145,-0.4102 0.5811,-0.5762 0.2183,-0.5762 0.9453,-0.3301 0.7266,-1.8105 -0.2178,-0.4922 0.5078,-0.7402 1.0908,-0.248 0.582,-1.3164 -0.1455,-1.6445 0.8721,-1.2344 0.1455,-1.2344 C 20.7331,29.4607 19.5495,28.8513 18.365,28.242"/></g></g><g id="g4186"><g id="g4190"><path id="path4192" d="m 16.7656,9.5649 0.7266,0.4937 0.582,0 0,-0.5757 -0.7266,-0.3291 -0.582,0.4111"/></g></g><g id="g4194"><g id="g4198"><path id="path4200" d="m 14.876,8.9072 -0.3638,0.9048 0.7271,0 0.3638,-0.8228 C 15.9166,8.7675 16.2286,8.5444 16.5479,8.331 l 0.7271,0.2471 c 0.4844,0.3291 0.9688,0.6582 1.4536,0.9868 L 19.4561,8.9072 18.6558,8.5781 18.292,7.8374 16.9111,7.6728 16.8383,7.2612 16.184,7.4262 15.8936,8.002 15.5298,7.2613 l -0.145,0.3291 0.0728,0.8228 -0.5816,0.494"/></g></g><g id="g4202"><g style="opacity:.75" id="g4204"><path id="path4206"/></g><g id="g4208"><path id="path4210"/></g></g><g id="g4212"><g style="opacity:.75" id="g4214"><path id="path4216"/></g><g id="g4218"><path id="path4220"/></g></g><g id="g4222"><g id="g4226"><path id="path4228" d="M 17.4922,6.8496 17.856,6.521 18.5831,6.3564 c 0.498,-0.2422 0.998,-0.4053 1.5264,-0.5762 l -0.29,-0.4937 -0.9385,0.1348 -0.4434,0.4419 -0.731,0.106 -0.6499,0.3052 -0.3159,0.1528 -0.1929,0.2583 0.9443,0.1641"/></g></g><g id="g4230"><g id="g4234"><path id="path4236" d="m 18.7285,14.6665 0.4365,-0.6582 -0.6548,-0.4932 0.2183,1.1514"/></g></g></g><g id="g3216" transform="matrix(1.1446446,0,0,1.1446446,-4.5814583,-3.4150261)" style="color:#000;fill:url(#radialGradient1460);fill-opacity:1;fill-rule:nonzero;stroke:none;stroke-width:1.01794541;marker:none;visibility:visible;display:inline;overflow:visible"><g id="g3218" style="color:#000;fill:url(#radialGradient1462);marker:none;visibility:visible;display:inline;overflow:visible"><g id="g3222" style="color:#000;fill:url(#radialGradient1466);marker:none;visibility:visible;display:inline;overflow:visible"><path id="path3224" d="m 44.0713,20.7144 c 0,0.2627 0,0 0,0 l -0.5449,0.6172 c -0.334,-0.3936 -0.709,-0.7246 -1.0898,-1.0703 l -0.8359,0.123 -0.7637,-0.8633 0,1.0684 0.6543,0.4951 0.4355,0.4932 0.582,-0.6582 c 0.1465,0.2744 0.291,0.5488 0.4365,0.8232 l 0,0.8223 -0.6553,0.7402 -1.1992,0.8232 -0.9082,0.9063 -0.582,-0.6602 0.291,-0.7402 -0.5811,-0.6582 -0.9814,-2.0977 -0.8359,-0.9453 -0.2188,0.2461 0.3281,1.1934 0.6172,0.6992 c 0.3525,1.0176 0.7012,1.9902 1.1641,2.9629 0.7178,0 1.3945,-0.0762 2.1074,-0.166 l 0,0.5762 -0.8721,2.1392 -0.7998,0.9043 -0.6543,1.4004 c 0,0.7676 0,1.5352 0,2.3027 l 0.2188,0.9063 -0.3633,0.4102 -0.8008,0.4941 -0.8359,0.6992 0.6914,0.7813 -0.9453,0.8242 0.1816,0.5332 -1.418,1.6055 -0.9443,0 -0.7998,0.4941 -0.5098,0 0,-0.6582 -0.2168,-1.3184 c -0.2813,-0.8262 -0.5742,-1.6465 -0.8721,-2.4668 0,-0.6055 0.0361,-1.2051 0.0723,-1.8105 l 0.3643,-0.8223 -0.5098,-0.9883 0.0371,-1.3574 -0.6914,-0.7813 0.3457,-1.1309 -0.5625,-0.6382 -0.9824,0 -0.3271,-0.3701 -0.9814,0.6177 -0.3994,-0.4536 -0.9092,0.7817 c -0.6172,-0.6997 -1.2354,-1.3989 -1.8535,-2.0981 l -0.7266,-1.7285 0.6543,-0.9863 -0.3633,-0.4111 0.7988,-1.8936 c 0.6563,-0.8164 1.3418,-1.5996 2.0352,-2.3857 l 1.2363,-0.3291 1.3809,-0.1641 0.9453,0.2471 1.3447,1.3564 0.4727,-0.5342 0.6533,-0.082 1.2363,0.4111 0.9453,0 0.6543,-0.5762 0.291,-0.4111 -0.6553,-0.4111 -1.0908,-0.082 c -0.3027,-0.4199 -0.584,-0.8613 -0.9434,-1.2344 l -0.3643,0.1641 -0.1455,1.0703 -0.6543,-0.7402 -0.1445,-0.8242 -0.7266,-0.5742 -0.292,0 0.7275,0.8223 -0.291,0.7402 -0.5811,0.1641 0.3633,-0.7402 -0.6553,-0.3281 -0.5801,-0.6582 -1.0918,0.2461 -0.1445,0.3281 -0.6543,0.4121 -0.3633,0.9053 -0.9082,0.4521 -0.4004,-0.4521 -0.4355,0 0,-1.4814 0.9453,-0.4941 0.7266,0 -0.1465,-0.5752 -0.5801,-0.5762 0.9805,-0.2061 0.5449,-0.6162 0.4355,-0.7412 0.8008,0 -0.2188,-0.5752 0.5098,-0.3291 0,0.6582 1.0898,0.2461 1.0898,-0.9043 0.0732,-0.4121 0.9443,-0.6577 c -0.3418,0.0425 -0.6836,0.0737 -1.0176,0.1646 l 0,-0.7411 0.3633,-0.8228 -0.3633,0 -0.7984,0.7402 -0.2188,0.4116 0.2188,0.5767 -0.3643,0.9863 -0.5811,-0.3291 -0.5078,-0.5752 -0.8008,0.5752 -0.291,-1.3159 1.3809,-0.9048 0,-0.4941 0.873,-0.5757 1.3809,-0.3296 0.9453,0.3296 1.7441,0.3291 -0.4355,0.4932 -0.9453,0 0.9453,0.9873 0.7266,-0.8223 0.2207,-0.3618 c 0,0 2.7871,2.498 4.3799,5.2305 1.5928,2.7334 2.3408,5.9551 2.3408,6.6094 z" style="color:#000;fill:url(#radialGradient1468);marker:none;visibility:visible;display:inline;overflow:visible"/></g></g><g id="g3226" style="color:#000;fill:url(#radialGradient1470);marker:none;visibility:visible;display:inline;overflow:visible"><g id="g3230" style="color:#000;fill:url(#radialGradient1474);marker:none;visibility:visible;display:inline;overflow:visible"><path id="path3232" d="m 26.0703,9.2363 -0.0732,0.4932 0.5098,0.3291 0.8711,-0.5757 -0.4355,-0.4937 -0.582,0.3296 -0.29,-0.0825" style="color:#000;fill:url(#radialGradient1476);marker:none;visibility:visible;display:inline;overflow:visible"/></g></g><g id="g3234" style="color:#000;fill:url(#radialGradient1478);marker:none;visibility:visible;display:inline;overflow:visible"><g id="g3238" style="color:#000;fill:url(#radialGradient1482);marker:none;visibility:visible;display:inline;overflow:visible"><path id="path3240" d="m 26.8701,5.8633 -1.8906,-0.7407 -2.1797,0.2466 -2.6904,0.7402 -0.5088,0.4941 1.6719,1.1514 0,0.6582 -0.6543,0.6582 0.873,1.729 0.5801,-0.3301 0.7285,-1.1514 c 1.123,-0.3472 2.1299,-0.7407 3.1973,-1.2344 l 0.873,-2.2212" style="color:#000;fill:url(#radialGradient1484);marker:none;visibility:visible;display:inline;overflow:visible"/></g></g><g id="g3242" style="color:#000;fill:url(#radialGradient1486);marker:none;visibility:visible;display:inline;overflow:visible"><g id="g3246" style="color:#000;fill:url(#radialGradient1490);marker:none;visibility:visible;display:inline;overflow:visible"><path id="path3248" d="m 28.833,12.7749 -0.291,-0.7412 -0.5098,0.165 0.1465,0.9043 0.6543,-0.3281" style="color:#000;fill:url(#radialGradient1492);marker:none;visibility:visible;display:inline;overflow:visible"/></g></g><g id="g3250" style="color:#000;fill:url(#radialGradient1494);marker:none;visibility:visible;display:inline;overflow:visible"><g id="g3254" style="color:#000;fill:url(#radialGradient1498);marker:none;visibility:visible;display:inline;overflow:visible"><path id="path3256" d="m 29.123,12.6089 -0.1455,0.9883 0.7998,-0.165 0.5811,-0.5752 -0.5088,-0.4941 C 29.6787,11.9078 29.4824,11.483 29.2685,11.0465 l -0.4355,0 0,0.4932 0.29,0.3291 0,0.7402" style="color:#000;fill:url(#radialGradient1500);marker:none;visibility:visible;display:inline;overflow:visible"/></g></g><g id="g3258" style="color:#000;fill:url(#radialGradient1502);marker:none;visibility:visible;display:inline;overflow:visible"><g id="g3262" style="color:#000;fill:url(#radialGradient1506);marker:none;visibility:visible;display:inline;overflow:visible"><path id="path3264" d="m 18.3652,28.2422 -0.582,-1.1523 -1.0903,-0.2466 -0.5815,-1.5625 -1.4536,0.1641 -1.2354,-0.9043 -1.3091,1.1514 0,0.1816 c -0.396,-0.1143 -0.8828,-0.1299 -1.2354,-0.3467 l -0.291,-0.8223 0,-0.9053 -0.8721,0.082 c 0.0728,-0.5762 0.145,-1.1514 0.2183,-1.7275 l -0.5093,0 -0.5083,0.6582 -0.5093,0.2461 -0.7271,-0.4102 -0.0728,-0.9053 0.1455,-0.9873 1.0908,-0.8223 0.8721,0 0.145,-0.4941 1.0903,0.2461 0.7998,0.9883 0.1455,-1.6465 1.3813,-1.1514 0.5088,-1.2344 1.0176,-0.4111 0.5815,-0.8223 1.3081,-0.248 0.6548,-0.9863 c -0.6543,0 -1.3086,0 -1.9629,0 l 1.2358,-0.5762 0.8716,0 1.2363,-0.4121 0.1455,-0.4922 -0.4365,-0.4121 -0.5088,-0.165 0.1455,-0.4932 -0.3633,-0.7402 -0.8726,0.3281 0.1455,-0.6577 -1.0176,-0.5762 -0.7993,1.3979 0.0723,0.4941 -0.7993,0.3301 -0.5093,1.0693 -0.2178,-0.9873 -1.3813,-0.5762 -0.2183,-0.7402 1.8174,-1.0703 0.7998,-0.7402 0.0728,-0.9048 -0.436,-0.2471 -0.5815,-0.0825 -0.3633,0.9053 c 0,0 -0.6079,0.1191 -0.7642,0.1577 -1.9961,1.8394 -6.0293,5.8101 -6.9663,13.3062 0.0371,0.1738 0.6792,1.1816 0.6792,1.1816 l 1.5264,0.9043 1.5264,0.4121 0.6548,0.8232 1.0171,0.7402 0.5815,-0.082 0.436,0.1963 0,0.1328 -0.5811,1.563 -0.4365,0.6582 0.1455,0.3301 -0.3633,1.2324 1.3086,2.3867 1.3081,1.1523 0.582,0.8223 -0.0732,1.7285 0.4365,0.9863 -0.4365,1.8926 c 0,0 -0.0342,-0.0117 0.0215,0.1777 0.0562,0.1895 2.3291,1.4512 2.4736,1.3438 0.144,-0.1094 0.2671,-0.2051 0.2671,-0.2051 l -0.145,-0.4102 0.5811,-0.5762 0.2183,-0.5762 0.9453,-0.3301 0.7266,-1.8105 -0.2178,-0.4922 0.5078,-0.7402 1.0908,-0.248 0.582,-1.3164 -0.1455,-1.6445 0.8721,-1.2344 0.1455,-1.2344 C 20.7331,29.4607 19.5495,28.8513 18.365,28.242" style="color:#000;fill:url(#radialGradient1508);marker:none;visibility:visible;display:inline;overflow:visible"/></g></g><g id="g3266" style="color:#000;fill:url(#radialGradient1510);marker:none;visibility:visible;display:inline;overflow:visible"><g id="g3270" style="color:#000;fill:url(#radialGradient1514);marker:none;visibility:visible;display:inline;overflow:visible"><path id="path3272" d="m 16.7656,9.5649 0.7266,0.4937 0.582,0 0,-0.5757 -0.7266,-0.3291 -0.582,0.4111" style="color:#000;fill:url(#radialGradient1516);marker:none;visibility:visible;display:inline;overflow:visible"/></g></g><g id="g3274" style="color:#000;fill:url(#radialGradient1518);marker:none;visibility:visible;display:inline;overflow:visible"><g id="g3278" style="color:#000;fill:url(#radialGradient1522);marker:none;visibility:visible;display:inline;overflow:visible"><path id="path3280" d="m 14.876,8.9072 -0.3638,0.9048 0.7271,0 0.3638,-0.8228 C 15.9166,8.7675 16.2286,8.5444 16.5479,8.331 l 0.7271,0.2471 c 0.4844,0.3291 0.9688,0.6582 1.4536,0.9868 L 19.4561,8.9072 18.6558,8.5781 18.292,7.8374 16.9111,7.6728 16.8383,7.2612 16.184,7.4262 15.8936,8.002 15.5298,7.2613 l -0.145,0.3291 0.0728,0.8228 -0.5816,0.494" style="color:#000;fill:url(#radialGradient1524);marker:none;visibility:visible;display:inline;overflow:visible"/></g></g><g id="g3282" style="color:#000;fill:url(#radialGradient1526);marker:none;visibility:visible;display:inline;overflow:visible"><g style="opacity:.75;color:#000;fill:url(#radialGradient1528);marker:none;visibility:visible;display:inline;overflow:visible" id="g3284"><path style="color:#000;fill:url(#radialGradient1530);marker:none;visibility:visible;display:inline;overflow:visible" id="path3286"/></g><g id="g3288" style="color:#000;fill:url(#radialGradient1532);marker:none;visibility:visible;display:inline;overflow:visible"><path id="path3290" style="color:#000;fill:url(#radialGradient1534);marker:none;visibility:visible;display:inline;overflow:visible"/></g></g><g id="g3292" style="color:#000;fill:url(#radialGradient1536);marker:none;visibility:visible;display:inline;overflow:visible"><g style="opacity:.75;color:#000;fill:url(#radialGradient1538);marker:none;visibility:visible;display:inline;overflow:visible" id="g3294"><path style="color:#000;fill:url(#radialGradient1540);marker:none;visibility:visible;display:inline;overflow:visible" id="path3296"/></g><g id="g3298" style="color:#000;fill:url(#radialGradient1542);marker:none;visibility:visible;display:inline;overflow:visible"><path id="path3300" style="color:#000;fill:url(#radialGradient1544);marker:none;visibility:visible;display:inline;overflow:visible"/></g></g><g id="g3302" style="color:#000;fill:url(#radialGradient1546);marker:none;visibility:visible;display:inline;overflow:visible"><g id="g3306" style="color:#000;fill:url(#radialGradient1550);marker:none;visibility:visible;display:inline;overflow:visible"><path id="path3308" d="M 17.4922,6.8496 17.856,6.521 18.5831,6.3564 c 0.498,-0.2422 0.998,-0.4053 1.5264,-0.5762 l -0.29,-0.4937 -0.9385,0.1348 -0.4434,0.4419 -0.731,0.106 -0.6499,0.3052 -0.3159,0.1528 -0.1929,0.2583 0.9443,0.1641" style="color:#000;fill:url(#radialGradient1552);marker:none;visibility:visible;display:inline;overflow:visible"/></g></g><g id="g3310" style="color:#000;fill:url(#radialGradient1554);marker:none;visibility:visible;display:inline;overflow:visible"><g id="g3314" style="color:#000;fill:url(#radialGradient1558);marker:none;visibility:visible;display:inline;overflow:visible"><path id="path3316" d="m 18.7285,14.6665 0.4365,-0.6582 -0.6548,-0.4932 0.2183,1.1514" style="color:#000;fill:url(#radialGradient4756);marker:none;visibility:visible;display:inline;overflow:visible"/></g></g></g><path style="fill:none;stroke:url(#radialGradient4132);stroke-width:1.16518569;stroke-miterlimit:4;stroke-opacity:1" id="path4122" d="m 45.586828,23.913997 c 0,11.845068 -9.602502,21.447464 -21.445941,21.447464 -11.844525,0 -21.4464855,-9.602504 -21.4464855,-21.447464 0,-11.844525 9.6019605,-21.4459411 21.4464855,-21.4459411 11.843439,0 21.445941,9.6014161 21.445941,21.4459411 l 0,0 z"/></g></svg>