<svg xmlns="http://www.w3.org/2000/svg" xmlns:svg="http://www.w3.org/2000/svg" xmlns:xlink="http://www.w3.org/1999/xlink" id="svg4198" width="48" height="48" version="1.1"><defs id="defs4200"><linearGradient id="linearGradient5048"><stop style="stop-color:black;stop-opacity:0" id="stop5050" offset="0"/><stop id="stop5056" offset=".5" style="stop-color:black;stop-opacity:1"/><stop style="stop-color:black;stop-opacity:0" id="stop5052" offset="1"/></linearGradient><linearGradient id="linearGradient3558"><stop style="stop-color:#000;stop-opacity:1" id="stop3560" offset="0"/><stop style="stop-color:#000;stop-opacity:0" id="stop3562" offset="1"/></linearGradient><radialGradient id="radialGradient3564" cx="22.571" cy="30.857" r="15.571" fx="22.571" fy="30.857" gradientTransform="matrix(1.000000,0.000000,0.000000,0.651376,4.638648e-15,10.75754)" gradientUnits="userSpaceOnUse" xlink:href="#linearGradient3558"/><linearGradient id="linearGradient15218"><stop style="stop-color:#73d216;stop-opacity:1" id="stop15220" offset="0"/><stop style="stop-color:#4e9a06;stop-opacity:1" id="stop15222" offset="1"/></linearGradient><linearGradient id="linearGradient15224" x1="22.308" x2="35.785" y1="18.992" y2="39.498" gradientTransform="matrix(1.060837,0.000000,0.000000,0.987595,4.641161,4.108291)" gradientUnits="userSpaceOnUse" xlink:href="#linearGradient15218"/><linearGradient id="linearGradient2259"><stop style="stop-color:#fff;stop-opacity:1" id="stop2261" offset="0"/><stop style="stop-color:#fff;stop-opacity:0" id="stop2263" offset="1"/></linearGradient><linearGradient id="linearGradient2265" x1="26.076" x2="30.811" y1="26.697" y2="42.007" gradientTransform="matrix(0.993566,0.000000,0.000000,1.000000,6.219859,4.033411)" gradientUnits="userSpaceOnUse" xlink:href="#linearGradient2259"/><linearGradient id="linearGradient2216"><stop style="stop-color:#000;stop-opacity:1" id="stop2218" offset="0"/><stop style="stop-color:#000;stop-opacity:0" id="stop2220" offset="1"/></linearGradient><linearGradient id="linearGradient2222" x1="36.813" x2="39.063" y1="39.156" y2="42.063" gradientTransform="translate(6.161836,4.033411)" gradientUnits="userSpaceOnUse" xlink:href="#linearGradient2216"/><linearGradient id="linearGradient2224"><stop style="stop-color:#7c7c7c;stop-opacity:1" id="stop2226" offset="0"/><stop style="stop-color:#b8b8b8;stop-opacity:1" id="stop2228" offset="1"/></linearGradient><linearGradient id="linearGradient2240" x1="20.794" x2="35.596" y1="18.379" y2="39.6" gradientTransform="matrix(1.3446772,0,0,1.0962233,-8.2669617,-0.56984359)" gradientUnits="userSpaceOnUse" xlink:href="#linearGradient15218"/><linearGradient id="linearGradient2874-7-1" x1="21.994" x2="20.917" y1="33.955" y2="15.815" gradientTransform="matrix(0.95961629,0,0,0.95961629,1.0500017,3.4694012)" gradientUnits="userSpaceOnUse" xlink:href="#linearGradient3957-4-4"/><linearGradient id="linearGradient3957-4-4"><stop style="stop-color:#fffeff;stop-opacity:.33333334" id="stop3959-0-2" offset="0"/><stop style="stop-color:#fffeff;stop-opacity:.21568628" id="stop3961-9-3" offset="1"/></linearGradient><linearGradient id="linearGradient3829" x1="43.936" x2="20.065" y1="53.836" y2="-8.563" gradientUnits="userSpaceOnUse" xlink:href="#linearGradient2479-5-5"/><linearGradient id="linearGradient2479-5-5"><stop style="stop-color:#4293c1;stop-opacity:1" id="stop2481-5-7" offset="0"/><stop style="stop-color:#fff;stop-opacity:1" id="stop2483-1-6" offset="1"/></linearGradient><linearGradient id="linearGradient3966" x1="36.918" x2="19.071" y1="66.288" y2="5.541" gradientUnits="userSpaceOnUse" xlink:href="#linearGradient2479-5-5"/><linearGradient id="linearGradient14647"><stop style="stop-color:#4293c1;stop-opacity:1" id="stop14649" offset="0"/><stop style="stop-color:#fff;stop-opacity:1" id="stop14651" offset="1"/></linearGradient><linearGradient id="linearGradient15568" x1="43.936" x2="20.065" y1="53.836" y2="-8.563" gradientUnits="userSpaceOnUse" xlink:href="#linearGradient2479-5-5"/><linearGradient id="linearGradient15570" x1="21.994" x2="20.917" y1="33.955" y2="15.815" gradientTransform="matrix(0.95961629,0,0,0.95961629,1.0500017,3.4694012)" gradientUnits="userSpaceOnUse" xlink:href="#linearGradient3957-4-4"/></defs><metadata id="metadata4203"/><g id="layer1"><g id="g15560" transform="translate(0.31249861,-0.43749909)"><path id="path1314-1-8" d="m 46.857143,23.928572 c 0,12.899794 -10.457349,23.357143 -23.357143,23.357143 -12.899794,0 -23.3571434,-10.457349 -23.3571434,-23.357143 0,-12.899794 10.4573494,-23.3571437 23.3571434,-23.3571437 12.899794,0 23.357143,10.4573497 23.357143,23.3571437 z" transform="matrix(0.88067854,0,0,0.88067854,2.9915557,3.3641195)" style="fill:#204a87;fill-opacity:1;fill-rule:nonzero;stroke:#729fcf;stroke-width:1.08638;stroke-linecap:butt;stroke-linejoin:miter;stroke-miterlimit:4;stroke-opacity:1;stroke-dasharray:none"/><path id="path3560-1-9" d="m 49.901535,26.635273 c 0,13.249931 -10.741192,23.991123 -23.991123,23.991123 -13.249932,0 -23.9911234,-10.741192 -23.9911234,-23.991123 0,-13.249931 10.7411914,-23.9911232 23.9911234,-23.9911232 13.249931,0 23.991123,10.7411922 23.991123,23.9911232 z" transform="matrix(0.81906849,0,0,0.81906849,2.4650952,2.6213821)" style="opacity:.34659089;fill:#c90;fill-opacity:0;stroke:url(#linearGradient15568);stroke-width:1.16860485;stroke-linecap:butt;stroke-linejoin:miter;stroke-miterlimit:4;stroke-opacity:1;stroke-dasharray:none"/><path style="fill:url(#linearGradient15570);fill-opacity:1;fill-rule:nonzero;stroke:none" id="path3955-5-2" d="m 42.669221,24.307937 c 0,10.393234 -9.936183,-6.013251 -17.920585,0.370782 -7.79815,6.235118 -20.142541,10.339758 -20.142541,-0.05348 0,-10.636437 8.721604,-19.1456308 19.114841,-19.1456308 10.393242,0 18.948285,8.4350878 18.948285,18.8283278 z"/><g style="fill:#fff;fill-opacity:1" id="g2902-2-7" transform="matrix(3.0678444,0,0,3.0678444,-0.76384462,-98.08806)"><rect style="fill:#fff;fill-opacity:1;fill-rule:nonzero;stroke:none" id="rect2070-7-9" width="5.634" height="2.495" x="-44.366" y="6.753" transform="matrix(0,-1,1,0,0,0)"/><rect style="fill:#fff;fill-opacity:1;fill-rule:nonzero;stroke:none" id="rect2070-1-6-5" width="1.861" height="2.495" x="-37.458" y="6.728" transform="matrix(0,-1,1,0,0,0)"/></g></g></g></svg>