<svg xmlns="http://www.w3.org/2000/svg" xmlns:svg="http://www.w3.org/2000/svg" xmlns:xlink="http://www.w3.org/1999/xlink" id="svg4198" width="48" height="48" version="1.1"><defs id="defs4200"><linearGradient id="linearGradient5048"><stop style="stop-color:black;stop-opacity:0" id="stop5050" offset="0"/><stop id="stop5056" offset=".5" style="stop-color:black;stop-opacity:1"/><stop style="stop-color:black;stop-opacity:0" id="stop5052" offset="1"/></linearGradient><linearGradient id="linearGradient3558"><stop style="stop-color:#000;stop-opacity:1" id="stop3560" offset="0"/><stop style="stop-color:#000;stop-opacity:0" id="stop3562" offset="1"/></linearGradient><radialGradient id="radialGradient3564" cx="22.571" cy="30.857" r="15.571" fx="22.571" fy="30.857" gradientTransform="matrix(1.000000,0.000000,0.000000,0.651376,4.638648e-15,10.75754)" gradientUnits="userSpaceOnUse" xlink:href="#linearGradient3558"/><linearGradient id="linearGradient15218"><stop style="stop-color:#eeeeec;stop-opacity:1" id="stop15220" offset="0"/><stop id="stop2269" offset=".599" style="stop-color:#729fcf;stop-opacity:1"/><stop style="stop-color:#3465a4;stop-opacity:1" id="stop15222" offset="1"/></linearGradient><linearGradient id="linearGradient15224" x1="22.308" x2="35.785" y1="18.992" y2="39.498" gradientTransform="matrix(1.060837,0.000000,0.000000,0.987595,4.641161,4.108291)" gradientUnits="userSpaceOnUse" xlink:href="#linearGradient15218"/><linearGradient id="linearGradient2259"><stop style="stop-color:#fff;stop-opacity:1" id="stop2261" offset="0"/><stop style="stop-color:#fff;stop-opacity:0" id="stop2263" offset="1"/></linearGradient><linearGradient id="linearGradient2265" x1="26.076" x2="30.811" y1="26.697" y2="42.007" gradientTransform="matrix(0.993566,0.000000,0.000000,1.000000,6.219859,4.033411)" gradientUnits="userSpaceOnUse" xlink:href="#linearGradient2259"/><linearGradient id="linearGradient2216"><stop style="stop-color:#000;stop-opacity:1" id="stop2218" offset="0"/><stop style="stop-color:#000;stop-opacity:0" id="stop2220" offset="1"/></linearGradient><linearGradient id="linearGradient2222" x1="36.813" x2="39.063" y1="39.156" y2="42.063" gradientTransform="translate(6.161836,4.033411)" gradientUnits="userSpaceOnUse" xlink:href="#linearGradient2216"/><linearGradient id="linearGradient2224"><stop style="stop-color:#7c7c7c;stop-opacity:1" id="stop2226" offset="0"/><stop style="stop-color:#b8b8b8;stop-opacity:1" id="stop2228" offset="1"/></linearGradient><linearGradient id="linearGradient2240" x1="20.794" x2="35.596" y1="18.379" y2="39.6" gradientTransform="matrix(1.3446772,0,0,1.0962233,-8.2669617,-0.56984359)" gradientUnits="userSpaceOnUse" xlink:href="#linearGradient15218"/><linearGradient id="linearGradient3707" x1="20.794" x2="35.596" y1="18.379" y2="39.6" gradientTransform="matrix(1.3446772,0,0,1.0962233,-7.891962,-3.0698436)" gradientUnits="userSpaceOnUse" xlink:href="#linearGradient15218"/></defs><metadata id="metadata4203"/><g id="layer1"><rect style="fill:url(#linearGradient3707);fill-opacity:1;fill-rule:evenodd;stroke:#204a87;stroke-width:3;stroke-linecap:butt;stroke-linejoin:miter;stroke-miterlimit:4;stroke-opacity:1;stroke-dasharray:none;stroke-dashoffset:0" id="rect4238" width="39.054" height="39.934" x="4.848" y="4.095" rx=".567" ry=".503"/><path style="fill:#fff;stroke:none;stroke-width:1px;stroke-linecap:butt;stroke-linejoin:miter;stroke-opacity:1;fill-opacity:1" id="path37607" d="m 7.7781747,7.0761947 0.088388,34.0295143 33.4991843,0 0.265165,-34.0295143 -33.8527376,0 z"/><path style="fill:#3465a4;fill-opacity:1;stroke:none" id="path32079-1" d="m 18.1047,36.733237 c -2.159394,-1.23902 -4.284577,-2.596967 -6.126525,-4.271894 -1.623221,-1.476035 -4.25933,-5.01795 -4.25933,-5.01795 0,0 0.4352138,14.025572 0.4352138,14.025572 L 27.553369,41.100244 c -1.973806,-0.05903 -6.439198,-2.64023 -9.448669,-4.367007 z"/><path style="fill:#3465a4;fill-opacity:1;stroke:none" id="path32079" d="m 39.509592,38.719224 c 0,0 -3.230276,-5.836533 -5.126524,-8.57367 C 33.01001,28.163615 31.532011,26.240428 29.875262,24.4887 28.111626,22.623958 26.16036,20.932331 24.130019,19.362175 21.69307,17.477571 19.207635,15.589143 16.440233,14.235652 13.84567,12.966693 8.2201164,11.495611 8.2201164,11.495611 l 0.088388,11.444361 c 0,0 3.9944196,3.525007 6.0904206,5.166317 1.959893,1.534728 3.917516,3.095349 6.055417,4.370476 2.187925,1.304962 4.568858,2.256247 6.880367,3.327168 3.29688,1.527442 7.802204,2.98353 13.589096,5.65533 l -1.414213,-2.740039 z"/><path style="fill:#3465a4;stroke:none;stroke-width:1px;stroke-linecap:butt;stroke-linejoin:miter;stroke-opacity:1;fill-opacity:1" id="path32081" d="m 41.454135,37.481787 c 0,0 -1.837891,-5.517574 -3.093592,-8.131729 C 36.524917,25.528597 34.56803,21.69117 31.908193,18.389904 29.893762,15.889685 27.380299,13.809088 24.837126,11.849166 22.402931,9.9732287 17.058952,6.899418 17.058952,6.899418 l 17.07196,-0.073223 c 0,0 3.074017,2.5460766 4.32427,4.0851933 1.254864,1.544795 3.123849,5.088344 3.123849,5.088344 l -0.124896,21.482055 z"/><path id="path323" d="M 7.5002907,5.4456841 6.2543775,42.824608 c 0,0 8.5062715,-18.838878 19.5810525,-18.838878 11.074782,0 16.965726,-18.5400459 16.965726,-18.5400459 l -35.3008653,0 z" style="fill:#fff;fill-opacity:.0892857;fill-rule:evenodd;stroke:none"/><rect style="fill:none;stroke:#fff;stroke-width:2.72762609;stroke-linecap:butt;stroke-linejoin:miter;stroke-miterlimit:4;stroke-opacity:1;stroke-dasharray:none;stroke-dashoffset:0" id="rect2245" width="33.767" height="34.539" x="7.799" y="6.872" rx="0" ry="0"/></g></svg>