<svg xmlns="http://www.w3.org/2000/svg" xmlns:svg="http://www.w3.org/2000/svg" id="svg3391" width="89.943" height="90" version="1.1"><metadata id="metadata3396"/><g id="layer1" transform="translate(-355.01274,-462.36217)"><path id="path6170" d="m 444.95537,530.83389 c 0,2.76099 -1.75399,5.88098 -4.99998,7.11697 -3.24599,1.23599 -31.49987,12.38995 -35.33285,13.52794 -3.83299,1.138 -5.34298,1.217 -8.50097,0 -3.15798,-1.21699 -33.46486,-12.16295 -36.10885,-13.52894 -2.64399,-1.36599 -4.99998,-4.35498 -4.99998,-7.11697 v -63.47074 c 0,-2.76099 2.23899,-4.99998 4.99998,-4.99998 h 79.94267 c 2.76099,0 4.99998,2.23899 4.99998,4.99998 v 63.47174 z" style="fill:#31b7da"/><g id="g3812" transform="matrix(1.1478858,0,0,1.1478858,-59.389864,-73.019689)"><rect id="rect2987" width="56.429" height="29.821" x="371.977" y="495.755" ry="3.75" style="fill:#fff;fill-opacity:1;stroke:none"/><path id="path2989" d="m 18.571428,36.428572 7.321429,-22.500001 38.035714,0.357143 7.678571,21.607144" transform="translate(355.01274,462.36217)" style="fill:none;stroke:#fff;stroke-width:2.43926704;stroke-linecap:round;stroke-linejoin:round;stroke-miterlimit:4;stroke-opacity:1;stroke-dasharray:none"/><path id="path2989-1" d="m 382.95917,491.82646 34.46428,0" style="fill:none;stroke:#fff;stroke-width:2.43926704;stroke-linecap:round;stroke-linejoin:round;stroke-miterlimit:4;stroke-opacity:1;stroke-dasharray:none"/><path id="path2989-1-7" d="m 384.92345,486.73718 30.71428,0" style="fill:none;stroke:#fff;stroke-width:2.43926704;stroke-linecap:round;stroke-linejoin:round;stroke-miterlimit:4;stroke-opacity:1;stroke-dasharray:none"/><path id="path2989-1-4" d="m 386.17345,481.64789 27.67857,0" style="fill:none;stroke:#fff;stroke-width:2.43926704;stroke-linecap:round;stroke-linejoin:round;stroke-miterlimit:4;stroke-opacity:1;stroke-dasharray:none"/><rect id="rect3802" width="16.964" height="5.179" x="391.709" y="493.791" ry="2.589" style="fill:#31b7da;fill-opacity:1;stroke:none"/><path id="path3804" d="m 390.93306,508.74162 -1.62246,3.84826 21.76142,-0.0676 -1.56753,-3.78063" style="fill:none;stroke:#31b7da;stroke-width:2.96196712;stroke-linecap:round;stroke-linejoin:round;stroke-miterlimit:4;stroke-opacity:1;stroke-dasharray:none"/></g></g></svg>