<svg xmlns="http://www.w3.org/2000/svg" xmlns:svg="http://www.w3.org/2000/svg" xmlns:xlink="http://www.w3.org/1999/xlink" id="svg11300" width="48" height="48" version="1.1"><defs id="defs3"><linearGradient id="linearGradient2250"><stop style="stop-color:#fff;stop-opacity:1" id="stop2252" offset="0"/><stop style="stop-color:#fff;stop-opacity:0" id="stop2254" offset="1"/></linearGradient><linearGradient id="linearGradient2265"><stop style="stop-color:#000;stop-opacity:1" id="stop2267" offset="0"/><stop style="stop-color:#000;stop-opacity:0" id="stop2269" offset="1"/></linearGradient><linearGradient id="linearGradient2257"><stop style="stop-color:#fff;stop-opacity:1" id="stop2259" offset="0"/><stop style="stop-color:#fff;stop-opacity:0" id="stop2261" offset="1"/></linearGradient><linearGradient id="linearGradient3087"><stop style="stop-color:#3465a4;stop-opacity:1" id="stop3089" offset="0"/><stop id="stop3095" offset="0" style="stop-color:#9fbce1;stop-opacity:1"/><stop style="stop-color:#6b95ca;stop-opacity:1" id="stop2242" offset="0"/><stop id="stop2244" offset=".75" style="stop-color:#3d6aa5;stop-opacity:1"/><stop style="stop-color:#386eb4;stop-opacity:1" id="stop3091" offset="1"/></linearGradient><linearGradient id="linearGradient3077"><stop style="stop-color:#98a0a9;stop-opacity:1" id="stop3079" offset="0"/><stop style="stop-color:#c3d0dd;stop-opacity:1" id="stop3081" offset="1"/></linearGradient><linearGradient id="linearGradient3061"><stop style="stop-color:#fff;stop-opacity:1" id="stop3063" offset="0"/><stop style="stop-color:#000;stop-opacity:1" id="stop3065" offset="1"/></linearGradient><linearGradient id="linearGradient3049"><stop style="stop-color:#b6b6b6;stop-opacity:1" id="stop3051" offset="0"/><stop id="stop2262" offset=".5" style="stop-color:#f2f2f2;stop-opacity:1"/><stop style="stop-color:#fafafa;stop-opacity:1" id="stop2264" offset=".676"/><stop id="stop2268" offset=".841" style="stop-color:#d8d8d8;stop-opacity:1"/><stop id="stop2266" offset=".875" style="stop-color:#f2f2f2;stop-opacity:1"/><stop style="stop-color:#dbdbdb;stop-opacity:1" id="stop3053" offset="1"/></linearGradient><linearGradient id="linearGradient3055" x1="19.648" x2="20.631" y1="42.254" y2="6.776" gradientTransform="matrix(1.0125521,0,0,1.0125521,-2.3310488,0.47517513)" gradientUnits="userSpaceOnUse" xlink:href="#linearGradient3049"/><linearGradient id="linearGradient3067" x1="50.153" x2="25.291" y1="-3.632" y2="-4.3" gradientTransform="matrix(1.0125519,0,0,1.0125519,-1.2866357,2.0010349)" gradientUnits="userSpaceOnUse" xlink:href="#linearGradient3061"/><linearGradient id="linearGradient3083" x1="38.228" x2="37.535" y1="13.603" y2="6.629" gradientTransform="matrix(1.0125521,0,0,1.0125521,-1.9730581,1.191158)" gradientUnits="userSpaceOnUse" xlink:href="#linearGradient3077"/><linearGradient id="linearGradient3093" x1="9.75" x2="16.915" y1="32.284" y2="39.443" gradientTransform="matrix(1.0125521,0,0,1.0125521,-2.3310488,0.47517513)" gradientUnits="userSpaceOnUse" xlink:href="#linearGradient3087"/><linearGradient id="linearGradient2263" x1="12.005" x2="10.651" y1="35.688" y2="33.195" gradientTransform="matrix(1.1612568,-0.03039634,0.03039634,1.1612568,-3.4188929,-5.1607346)" gradientUnits="userSpaceOnUse" xlink:href="#linearGradient2257"/><linearGradient id="linearGradient2271" x1="14.018" x2="15.416" y1="36.943" y2="38.268" gradientTransform="matrix(1.0123549,-0.01997238,0.01997238,1.0123549,-2.7614253,-0.56217794)" gradientUnits="userSpaceOnUse" xlink:href="#linearGradient2265"/><linearGradient id="linearGradient2256" x1="31.177" x2="40.859" y1="19.822" y2="9.657" gradientTransform="matrix(1.1528938,0,0,1.1528938,-5.2559265,-5.2520334)" gradientUnits="userSpaceOnUse" xlink:href="#linearGradient2250"/></defs><metadata id="metadata4"/><g id="layer1"><path style="color:#000;fill:url(#linearGradient3055);fill-opacity:1;fill-rule:nonzero;stroke:#888a85;stroke-width:1.15289342;stroke-linecap:butt;stroke-linejoin:miter;stroke-miterlimit:4;stroke-opacity:1;stroke-dasharray:none;stroke-dashoffset:0;marker:none;visibility:visible;display:inline;overflow:visible" id="path2140" d="M 15.388612,19.207388 37.28505,41.610101 c 0.885982,1.012552 3.693306,1.795126 5.569036,0 1.811341,-1.733506 1.392258,-4.176777 -0.379707,-5.948743 L 21.463924,13.132076 C 24.057935,5.9264893 18.807784,-0.12570503 12.034534,1.1713004 L 10.578989,2.500275 15.135473,6.8036213 15.388612,10.600696 11.986604,13.706133 7.9210407,13.258644 3.744264,9.335006 c 0,0 -1.4643149,1.446771 -1.4643149,1.446771 -0.6810876,6.50384 6.1192439,12.316627 13.1086629,8.425611 z"/><path id="path3057" d="m 15.631494,17.736784 22.138883,23.089709 c 0.685865,0.783844 2.859093,1.389658 4.311148,0 1.40221,-1.341955 1.077786,-3.23336 -0.293943,-4.605088 L 20.46881,13.600297 C 22.198151,6.1064872 18.325825,2.0660123 12.561357,2.2101241 l -0.311433,0.3151744 4.153787,3.7310717 0.150068,4.8211648 -4.166462,3.8028 -4.8909286,-0.528266 -3.6622621,-3.44886 -0.4065531,0.495813 c -0.3602794,6.881334 7.4842618,10.012611 12.2039208,6.337762 z" style="opacity:.42613639;color:#000;fill:none;stroke:#fff;stroke-width:1.15289283;stroke-linecap:butt;stroke-linejoin:miter;stroke-miterlimit:4;stroke-opacity:1;stroke-dasharray:none;stroke-dashoffset:0;marker:none;visibility:visible;display:inline;overflow:visible"/><rect style="opacity:.17045456;color:#000;fill:none;stroke:url(#linearGradient3067);stroke-width:1.15289044;stroke-linecap:butt;stroke-linejoin:miter;stroke-miterlimit:4;stroke-opacity:1;stroke-dasharray:none;stroke-dashoffset:0;marker:none;visibility:visible;display:inline;overflow:visible" id="rect3059" width="26.826" height="2.37" x="25.065" y="-2.92" rx="1.019" ry="1.019" transform="matrix(0.69793809,0.7161581,-0.7161581,0.69793809,0,0)"/><path style="color:#000;fill:url(#linearGradient3083);fill-opacity:1;fill-rule:nonzero;stroke:#878f9d;stroke-width:1.15289342;stroke-linecap:butt;stroke-linejoin:miter;stroke-miterlimit:4;stroke-opacity:1;stroke-dasharray:none;stroke-dashoffset:0;marker:none;visibility:visible;display:inline;overflow:visible" id="path2144" d="m 20.682793,29.47933 c 0.960985,-0.8237 15.31485,-15.504703 15.31485,-15.504703 l 3.543932,-0.253138 5.569036,-7.7207134 -4.639621,-4.1333455 -7.214434,6.2018841 0,3.5439328 -14.682004,15.251566 c -0.696129,0.696129 1.222258,3.37393 2.108241,2.614517 z"/><path id="path3085" d="m 20.571185,28.280407 c 0.74566,-0.639138 15.015751,-15.252563 15.015751,-15.252563 l 3.376345,-0.285916 4.858198,-6.5277595 -3.331553,-2.938714 -6.313913,5.4387447 0.178996,3.2868488 -14.614202,15.324636 c -0.540152,0.540151 0.142913,1.543979 0.830378,0.954723 z" style="opacity:.53977272;color:#000;fill:none;stroke:url(#linearGradient2256);stroke-width:1.15289402;stroke-linecap:butt;stroke-linejoin:miter;stroke-miterlimit:4;stroke-opacity:1;stroke-dasharray:none;stroke-dashoffset:0;marker:none;visibility:visible;display:inline;overflow:visible"/><path style="color:#000;fill:url(#linearGradient3093);fill-opacity:1;fill-rule:nonzero;stroke:#204a87;stroke-width:1.15289342;stroke-linecap:butt;stroke-linejoin:miter;stroke-miterlimit:4;stroke-opacity:1;stroke-dashoffset:0;marker:none;visibility:visible;display:inline;overflow:visible" id="path2142" d="m 4.503678,45.027464 c 1.5178856,1.689254 5.73413,2.453548 7.603846,-0.818455 0.81522,-1.426633 2.414094,-5.421832 9.547261,-11.841682 1.198025,-1.076999 2.467088,-3.540695 1.391251,-4.869669 l -2.784518,-2.784519 c -1.13912,-1.265689 -4.305383,-0.675306 -5.604419,1.096259 -3.872289,5.298923 -10.1985819,9.517 -11.6252154,10.026512 -2.72995962,0.974986 -2.42270316,4.99912 -0.6165942,6.913313 l 2.0883886,2.278241 z"/><path style="color:#000;fill:#fff;fill-opacity:1;fill-rule:nonzero;stroke:#a1a1a1;stroke-width:1.13860166;stroke-linecap:butt;stroke-linejoin:miter;stroke-miterlimit:4;stroke-opacity:1;stroke-dasharray:none;stroke-dashoffset:0;marker:none;visibility:visible;display:inline;overflow:visible" id="path2146" d="m 43.25,37.5 a 1.375,1.375 0 1 1 -2.75,0 1.375,1.375 0 1 1 2.75,0 z" transform="matrix(1.012552,0,0,1.012552,-2.4576181,0.60174328)"/><path style="opacity:.60227272;color:#000;fill:#fff;fill-opacity:1;fill-rule:nonzero;stroke:none;stroke-width:1;marker:none;visibility:visible;display:inline;overflow:visible" id="path3101" d="m 20.771261,28.20101 a 1.767767,1.767767 0 1 1 -3.535534,0 1.767767,1.767767 0 1 1 3.535534,0 z" transform="matrix(0.6581594,0,0,0.6581594,5.2986408,7.7193014)"/><path style="color:#000;fill:none;stroke:url(#linearGradient2263);stroke-width:2.64532518;stroke-linecap:round;stroke-linejoin:round;stroke-miterlimit:4;stroke-opacity:1;stroke-dasharray:none;stroke-dashoffset:0;marker:none;visibility:visible;display:inline;overflow:visible" id="path3103" d="m 16.278867,28.902222 c 0,0 -8.2661229,8.415679 -12.1384125,9.842312"/><path id="path2270" d="m 4.8964577,43.730607 c 1.6616262,2.012512 5.3027733,2.491668 6.4460133,-0.427249 0.785474,-2.005473 3.843312,-6.532051 9.450943,-11.578919 0.94181,-0.846669 1.939465,-2.783465 1.093712,-3.828219 l -2.189008,-2.189008 c -0.895502,-0.995002 -3.384611,-0.530882 -4.40583,0.861808 -3.044142,4.16567 -9.7803948,9.614621 -11.4087476,10.151951 -2.521142,0.83194 -2.0486835,3.713817 -0.6288381,5.218631 l 1.6417554,1.791005 z" style="opacity:.19886367;color:#000;fill:none;stroke:#fff;stroke-width:1.15289319;stroke-linecap:butt;stroke-linejoin:miter;stroke-miterlimit:4;stroke-opacity:1;stroke-dasharray:none;stroke-dashoffset:0;marker:none;visibility:visible;display:inline;overflow:visible"/><path style="opacity:.27840911;color:#000;fill:none;stroke:url(#linearGradient2271);stroke-width:2.64532518;stroke-linecap:round;stroke-linejoin:round;stroke-miterlimit:4;stroke-opacity:1;stroke-dashoffset:0;marker:none;visibility:visible;display:inline;overflow:visible" id="path2247" d="m 18.752628,30.788607 c 0,0 -8.442369,7.629165 -10.2766107,12.520478"/></g></svg>