<svg xmlns="http://www.w3.org/2000/svg" xmlns:svg="http://www.w3.org/2000/svg" xmlns:xlink="http://www.w3.org/1999/xlink" id="svg2" width="64" height="64" version="1.0"><metadata id="metadata126"/><defs id="defs4"><linearGradient id="linearGradient5069"><stop id="stop5071" offset="0" style="stop-color:#000;stop-opacity:1"/><stop id="stop5073" offset="1" style="stop-color:#000;stop-opacity:0"/></linearGradient><linearGradient id="linearGradient5057"><stop id="stop5059" offset="0" style="stop-color:#000;stop-opacity:1"/><stop id="stop5061" offset="1" style="stop-color:#000;stop-opacity:0"/></linearGradient><linearGradient id="linearGradient4965"><stop id="stop4967" offset="0" style="stop-color:#4e4e4e;stop-opacity:1"/><stop id="stop4969" offset="1" style="stop-color:#4e4e4e;stop-opacity:0"/></linearGradient><linearGradient id="linearGradient4809"><stop id="stop4811" offset="0" style="stop-color:#fff;stop-opacity:1"/><stop id="stop4989" offset=".473" style="stop-color:#fff;stop-opacity:1"/><stop id="stop4813" offset="1" style="stop-color:#000;stop-opacity:1"/></linearGradient><linearGradient id="linearGradient4372"><stop id="stop4374" offset="0" style="stop-color:#000;stop-opacity:0"/><stop id="stop4376" offset="1" style="stop-color:#000;stop-opacity:1"/></linearGradient><linearGradient id="linearGradient4332"><stop id="stop4334" offset="0" style="stop-color:#fff;stop-opacity:0"/><stop id="stop4336" offset="1" style="stop-color:#fff;stop-opacity:1"/></linearGradient><filter id="filter4307" color-interpolation-filters="sRGB"><feGaussianBlur id="feGaussianBlur4309" stdDeviation="14.907"/></filter><linearGradient id="linearGradient4338" x1="407.313" x2="379.146" y1="475.32" y2="447.578" gradientUnits="userSpaceOnUse" xlink:href="#linearGradient4332"/><linearGradient id="linearGradient4352" x1="407.313" x2="379.146" y1="475.32" y2="447.578" gradientTransform="translate(2.8693429e-6,-3.3828125e-6)" gradientUnits="userSpaceOnUse" xlink:href="#linearGradient4332"/><linearGradient id="linearGradient4354" x1="421.604" x2="386.339" y1="489.381" y2="454.117" gradientUnits="userSpaceOnUse" xlink:href="#linearGradient4332"/><linearGradient id="linearGradient4362" x1="421.604" x2="386.339" y1="489.381" y2="454.117" gradientUnits="userSpaceOnUse" xlink:href="#linearGradient4332"/><linearGradient id="linearGradient4364" x1="421.604" x2="386.339" y1="489.381" y2="454.117" gradientUnits="userSpaceOnUse" xlink:href="#linearGradient4332"/><linearGradient id="linearGradient4368" x1="401.227" x2="385.625" y1="469.888" y2="454.286" gradientUnits="userSpaceOnUse" xlink:href="#linearGradient4332"/><linearGradient id="linearGradient4378" x1="410.548" x2="427.311" y1="478.555" y2="495.318" gradientUnits="userSpaceOnUse" xlink:href="#linearGradient4372"/><linearGradient id="linearGradient4685" x1="360.27" x2="338.596" y1="512.602" y2="490.929" gradientUnits="userSpaceOnUse" xlink:href="#linearGradient4332"/><linearGradient id="linearGradient4689" x1="366.996" x2="390.263" y1="519.329" y2="542.595" gradientUnits="userSpaceOnUse" xlink:href="#linearGradient4372"/><linearGradient id="linearGradient4701" x1="681.182" x2="716.775" y1="222.019" y2="233.578" gradientUnits="userSpaceOnUse" xlink:href="#linearGradient4372"/><linearGradient id="linearGradient4705" x1="615.063" x2="594.709" y1="263.632" y2="284.439" gradientUnits="userSpaceOnUse" xlink:href="#linearGradient4372"/><linearGradient id="linearGradient4709" x1="615.063" x2="606.268" y1="207.223" y2="180.405" gradientUnits="userSpaceOnUse" xlink:href="#linearGradient4332"/><filter id="filter4769" color-interpolation-filters="sRGB"><feGaussianBlur id="feGaussianBlur4771" stdDeviation="2.162"/></filter><linearGradient id="linearGradient4783" x1="79.355" x2="71.98" y1="745.809" y2="725.465" gradientUnits="userSpaceOnUse" xlink:href="#linearGradient4332"/><linearGradient id="linearGradient4787" x1="145.937" x2="175.552" y1="773.552" y2="783.262" gradientUnits="userSpaceOnUse" xlink:href="#linearGradient4372"/><linearGradient id="linearGradient4791" x1="136.227" x2="112.207" y1="800.832" y2="804.068" gradientUnits="userSpaceOnUse" xlink:href="#linearGradient4372"/><linearGradient id="linearGradient4795" x1="85.077" x2="82.302" y1="750.432" y2="774.013" gradientUnits="userSpaceOnUse" xlink:href="#linearGradient4372"/><radialGradient id="radialGradient4985" cx="140.082" cy="411.286" r="253.7" fx="140.082" fy="411.286" gradientTransform="matrix(0,1.6747054,-0.8791225,8.4441185e-7,482.28972,-28.658364)" gradientUnits="userSpaceOnUse" xlink:href="#linearGradient4809"/><radialGradient id="radialGradient5065" cx="358.802" cy="480.868" r="144.44" fx="358.802" fy="480.868" gradientTransform="matrix(1,0,0,1.7005344,5.6583663e-7,-336.86489)" gradientUnits="userSpaceOnUse" xlink:href="#linearGradient5057"/><radialGradient id="radialGradient5075" cx="291.887" cy="385.31" r="149.988" fx="291.887" fy="385.31" gradientTransform="matrix(0.01151219,2.8372143,-2.2227,0.00901875,1127.7656,-571.70715)" gradientUnits="userSpaceOnUse" xlink:href="#linearGradient5069"/><radialGradient id="radialGradient5158" cx="291.887" cy="385.31" r="149.988" fx="291.887" fy="385.31" gradientTransform="matrix(0.01151219,2.8372143,-2.2227,0.00901875,1127.7656,-571.70715)" gradientUnits="userSpaceOnUse" xlink:href="#linearGradient5069"/><radialGradient id="radialGradient5165" cx="291.887" cy="385.31" r="149.988" fx="291.887" fy="385.31" gradientTransform="matrix(0.01151219,2.8372143,-2.2227,0.00901875,1127.7656,-571.70715)" gradientUnits="userSpaceOnUse" xlink:href="#linearGradient5069"/><linearGradient id="linearGradient5213" x1="366.996" x2="390.263" y1="519.329" y2="542.595" gradientTransform="translate(-4.5460112e-6,1.2089452e-6)" gradientUnits="userSpaceOnUse" xlink:href="#linearGradient4372"/><linearGradient id="linearGradient5215" x1="360.27" x2="338.596" y1="512.602" y2="490.929" gradientTransform="translate(-4.5460112e-6,1.2089452e-6)" gradientUnits="userSpaceOnUse" xlink:href="#linearGradient4332"/><linearGradient id="linearGradient5217" x1="681.182" x2="716.775" y1="222.019" y2="233.578" gradientTransform="translate(-4.5460112e-6,1.2089452e-6)" gradientUnits="userSpaceOnUse" xlink:href="#linearGradient4372"/><linearGradient id="linearGradient5219" x1="615.063" x2="594.709" y1="263.632" y2="284.439" gradientTransform="translate(-4.5460112e-6,1.2089452e-6)" gradientUnits="userSpaceOnUse" xlink:href="#linearGradient4372"/><linearGradient id="linearGradient5221" x1="615.063" x2="606.268" y1="207.223" y2="180.405" gradientTransform="translate(-4.5460112e-6,1.2089452e-6)" gradientUnits="userSpaceOnUse" xlink:href="#linearGradient4332"/><linearGradient id="linearGradient5223" x1="85.077" x2="82.302" y1="750.432" y2="774.013" gradientTransform="translate(-4.5460112e-6,1.2089452e-6)" gradientUnits="userSpaceOnUse" xlink:href="#linearGradient4372"/><linearGradient id="linearGradient5225" x1="79.355" x2="71.98" y1="745.809" y2="725.465" gradientTransform="translate(-4.5460112e-6,1.2089452e-6)" gradientUnits="userSpaceOnUse" xlink:href="#linearGradient4332"/><linearGradient id="linearGradient5227" x1="145.937" x2="175.552" y1="773.552" y2="783.262" gradientTransform="translate(-4.5460112e-6,1.2089452e-6)" gradientUnits="userSpaceOnUse" xlink:href="#linearGradient4372"/><linearGradient id="linearGradient5229" x1="136.227" x2="112.207" y1="800.832" y2="804.068" gradientTransform="translate(-4.5460112e-6,1.2089452e-6)" gradientUnits="userSpaceOnUse" xlink:href="#linearGradient4372"/><radialGradient id="radialGradient5231" cx="291.887" cy="385.31" r="149.988" fx="291.887" fy="385.31" gradientTransform="matrix(0.01151219,2.8372143,-2.2227,0.00901875,1127.7656,-571.70715)" gradientUnits="userSpaceOnUse" xlink:href="#linearGradient5069"/><filter id="filter5284" color-interpolation-filters="sRGB"><feGaussianBlur id="feGaussianBlur5286" stdDeviation="5.925"/></filter><filter id="filter5295" color-interpolation-filters="sRGB"><feGaussianBlur id="feGaussianBlur5297" stdDeviation="5.639"/></filter><linearGradient id="linearGradient5435" x1="366.996" x2="390.263" y1="519.329" y2="542.595" gradientUnits="userSpaceOnUse" xlink:href="#linearGradient4372"/><linearGradient id="linearGradient5437" x1="360.27" x2="338.596" y1="512.602" y2="490.929" gradientUnits="userSpaceOnUse" xlink:href="#linearGradient4332"/><linearGradient id="linearGradient5439" x1="681.182" x2="716.775" y1="222.019" y2="233.578" gradientUnits="userSpaceOnUse" xlink:href="#linearGradient4372"/><linearGradient id="linearGradient5441" x1="615.063" x2="594.709" y1="263.632" y2="284.439" gradientUnits="userSpaceOnUse" xlink:href="#linearGradient4372"/><linearGradient id="linearGradient5443" x1="615.063" x2="606.268" y1="207.223" y2="180.405" gradientUnits="userSpaceOnUse" xlink:href="#linearGradient4332"/><linearGradient id="linearGradient5445" x1="85.077" x2="82.302" y1="750.432" y2="774.013" gradientUnits="userSpaceOnUse" xlink:href="#linearGradient4372"/><linearGradient id="linearGradient5447" x1="79.355" x2="71.98" y1="745.809" y2="725.465" gradientUnits="userSpaceOnUse" xlink:href="#linearGradient4332"/><linearGradient id="linearGradient5449" x1="145.937" x2="175.552" y1="773.552" y2="783.262" gradientUnits="userSpaceOnUse" xlink:href="#linearGradient4372"/><linearGradient id="linearGradient5451" x1="136.227" x2="112.207" y1="800.832" y2="804.068" gradientUnits="userSpaceOnUse" xlink:href="#linearGradient4372"/><linearGradient id="linearGradient5454" x1="136.227" x2="112.207" y1="800.832" y2="804.068" gradientUnits="userSpaceOnUse" xlink:href="#linearGradient4372"/><linearGradient id="linearGradient5457" x1="145.937" x2="175.552" y1="773.552" y2="783.262" gradientUnits="userSpaceOnUse" xlink:href="#linearGradient4372"/><linearGradient id="linearGradient5460" x1="79.355" x2="71.98" y1="745.809" y2="725.465" gradientUnits="userSpaceOnUse" xlink:href="#linearGradient4332"/><linearGradient id="linearGradient5463" x1="85.077" x2="82.302" y1="750.432" y2="774.013" gradientUnits="userSpaceOnUse" xlink:href="#linearGradient4372"/><linearGradient id="linearGradient5468" x1="615.063" x2="606.268" y1="207.223" y2="180.405" gradientUnits="userSpaceOnUse" xlink:href="#linearGradient4332"/><linearGradient id="linearGradient5471" x1="615.063" x2="594.709" y1="263.632" y2="284.439" gradientUnits="userSpaceOnUse" xlink:href="#linearGradient4372"/><linearGradient id="linearGradient5474" x1="681.182" x2="716.775" y1="222.019" y2="233.578" gradientUnits="userSpaceOnUse" xlink:href="#linearGradient4372"/><linearGradient id="linearGradient5478" x1="360.27" x2="338.596" y1="512.602" y2="490.929" gradientUnits="userSpaceOnUse" xlink:href="#linearGradient4332"/><linearGradient id="linearGradient5481" x1="366.996" x2="390.263" y1="519.329" y2="542.595" gradientUnits="userSpaceOnUse" xlink:href="#linearGradient4372"/><linearGradient id="linearGradient5493" x1="360.27" x2="338.596" y1="512.602" y2="490.929" gradientUnits="userSpaceOnUse" xlink:href="#linearGradient4332"/><linearGradient id="linearGradient5525" x1="366.996" x2="390.263" y1="519.329" y2="542.595" gradientUnits="userSpaceOnUse" xlink:href="#linearGradient4372"/><filter id="filter3432" width="1.44" height="1.379" x="-.22" y="-.19" color-interpolation-filters="sRGB"><feGaussianBlur id="feGaussianBlur3434" stdDeviation="11.161"/></filter><linearGradient id="linearGradient3719" x1="136.227" x2="112.207" y1="800.832" y2="804.068" gradientUnits="userSpaceOnUse" xlink:href="#linearGradient4372"/><linearGradient id="linearGradient3722" x1="145.937" x2="175.552" y1="773.552" y2="783.262" gradientUnits="userSpaceOnUse" xlink:href="#linearGradient4372"/><linearGradient id="linearGradient3725" x1="79.355" x2="71.98" y1="745.809" y2="725.465" gradientUnits="userSpaceOnUse" xlink:href="#linearGradient4332"/><linearGradient id="linearGradient3728" x1="85.077" x2="82.302" y1="750.432" y2="774.013" gradientUnits="userSpaceOnUse" xlink:href="#linearGradient4372"/><linearGradient id="linearGradient3733" x1="615.063" x2="606.268" y1="207.223" y2="180.405" gradientUnits="userSpaceOnUse" xlink:href="#linearGradient4332"/><linearGradient id="linearGradient3736" x1="615.063" x2="594.709" y1="263.632" y2="284.439" gradientUnits="userSpaceOnUse" xlink:href="#linearGradient4372"/><linearGradient id="linearGradient3739" x1="681.182" x2="716.775" y1="222.019" y2="233.578" gradientUnits="userSpaceOnUse" xlink:href="#linearGradient4372"/><linearGradient id="linearGradient3743" x1="360.27" x2="338.596" y1="512.602" y2="490.929" gradientUnits="userSpaceOnUse" xlink:href="#linearGradient4332"/><linearGradient id="linearGradient3746" x1="366.996" x2="390.263" y1="519.329" y2="542.595" gradientUnits="userSpaceOnUse" xlink:href="#linearGradient4372"/><filter id="filter3758" color-interpolation-filters="sRGB"><feGaussianBlur id="feGaussianBlur3760" stdDeviation="18.017"/></filter><linearGradient id="linearGradient3105" x1="615.063" x2="606.268" y1="207.223" y2="180.405" gradientTransform="matrix(0.07191818,0,0,0.07191818,9.8407576,-5.8229291)" gradientUnits="userSpaceOnUse" xlink:href="#linearGradient4332"/><linearGradient id="linearGradient3108" x1="615.063" x2="594.709" y1="263.632" y2="284.439" gradientTransform="matrix(0.07191818,0,0,0.07191818,11.948542,-4.4816118)" gradientUnits="userSpaceOnUse" xlink:href="#linearGradient4372"/><linearGradient id="linearGradient3111" x1="681.182" x2="716.775" y1="222.019" y2="233.578" gradientTransform="matrix(0.07191818,0,0,0.07191818,10.032374,-6.0145459)" gradientUnits="userSpaceOnUse" xlink:href="#linearGradient4372"/><linearGradient id="linearGradient3115" x1="366.996" x2="390.263" y1="519.329" y2="542.595" gradientTransform="matrix(0.07191818,0,0,0.07191818,8.2120151,-4.1941866)" gradientUnits="userSpaceOnUse" xlink:href="#linearGradient4372"/><linearGradient id="linearGradient3118" x1="360.27" x2="338.596" y1="512.602" y2="490.929" gradientTransform="matrix(0.07191818,0,0,0.07191818,7.6371648,-4.0025699)" gradientUnits="userSpaceOnUse" xlink:href="#linearGradient4332"/><linearGradient id="linearGradient3126" x1="136.227" x2="112.207" y1="800.832" y2="804.068" gradientTransform="matrix(0.07191818,0,0,0.07191818,3.3257876,-4.8648453)" gradientUnits="userSpaceOnUse" xlink:href="#linearGradient4372"/><linearGradient id="linearGradient3129" x1="145.937" x2="175.552" y1="773.552" y2="783.262" gradientTransform="matrix(0.07191818,0,0,0.07191818,-19.572416,-2.5654441)" gradientUnits="userSpaceOnUse" xlink:href="#linearGradient4372"/><linearGradient id="linearGradient3132" x1="79.355" x2="71.98" y1="745.809" y2="725.465" gradientTransform="matrix(0.07191818,0,0,0.07191818,2.176087,-5.535504)" gradientUnits="userSpaceOnUse" xlink:href="#linearGradient4332"/><linearGradient id="linearGradient3135" x1="85.077" x2="82.302" y1="750.432" y2="774.013" gradientTransform="matrix(0.07191818,0,0,0.07191818,5.433572,-5.535504)" gradientUnits="userSpaceOnUse" xlink:href="#linearGradient4372"/><linearGradient id="linearGradient3140" x1="615.063" x2="606.268" y1="207.223" y2="180.405" gradientTransform="matrix(0.07191818,0,0,0.07191818,5.433572,-5.535504)" gradientUnits="userSpaceOnUse" xlink:href="#linearGradient4332"/><linearGradient id="linearGradient3143" x1="615.063" x2="594.709" y1="263.632" y2="284.439" gradientTransform="matrix(0.07191818,0,0,0.07191818,5.433572,-5.535504)" gradientUnits="userSpaceOnUse" xlink:href="#linearGradient4372"/><linearGradient id="linearGradient3146" x1="681.182" x2="716.775" y1="222.019" y2="233.578" gradientTransform="matrix(0.07191818,0,0,0.07191818,5.433572,-5.535504)" gradientUnits="userSpaceOnUse" xlink:href="#linearGradient4372"/><linearGradient id="linearGradient3152" x1="360.27" x2="338.596" y1="512.602" y2="490.929" gradientTransform="matrix(0.07191818,0,0,0.07191818,-31.16523,-2.3738274)" gradientUnits="userSpaceOnUse" xlink:href="#linearGradient4332"/><linearGradient id="linearGradient3155" x1="366.996" x2="390.263" y1="519.329" y2="542.595" gradientTransform="matrix(0.07191818,0,0,0.07191818,-32.793973,-1.3199351)" gradientUnits="userSpaceOnUse" xlink:href="#linearGradient4372"/></defs><rect style="fill:#eeeeec;stroke:#4e9a06;stroke-width:4.35947847;stroke-linecap:butt;stroke-linejoin:miter;stroke-miterlimit:4;stroke-opacity:1;stroke-dasharray:none;stroke-dashoffset:0" id="rect4238-8" width="57.233" height="57.543" x="3.742" y="3.257" rx=".831" ry=".724"/><g id="g3100" transform="translate(-0.6750261,0.18307236)"><path id="path3581" d="M 9.5638612,46.575042 17.833669,43.785622 46.745187,14.037279 43.890133,11.198633 55.786191,7.0965456 51.97945,19.123868 49.116193,16.293427 20.500712,45.707842 17.56529,54.52571 16.52107,47.401801 9.5638612,46.575042 z" style="fill:#4e9a06;fill-opacity:1;fill-rule:evenodd;stroke:none"/><path id="path4773" d="m 9.5638612,46.575042 8.2698078,-2.78942 2.667043,1.92222 -2.935422,8.817868 -1.04422,-7.123909 -6.9572088,-0.826759 z" style="fill:#4e9a06;fill-opacity:1;fill-rule:evenodd;stroke:none"/><path id="path3221" d="m 32.620743,11.368779 c -9.11432,0 -15.778471,7.232205 -15.778471,18.192653 0,14.373386 9.741399,18.65559 16.24344,18.655591 1.101193,0 2.251317,-0.137427 3.407061,-0.422329 0.15415,3.483965 0.615857,9.078621 6.958285,8.726788 6.951421,-0.387314 5.603987,-8.204967 5.603987,-8.204967 l -2.678138,0 c 0,0 0.03553,4.375687 -1.522822,4.166442 -1.549976,-0.120098 -2.467344,-4.258643 -3.30148,-6.970466 4.129323,-2.844794 7.404979,-8.040884 7.404979,-16.091158 0,-10.983536 -6.637185,-18.052554 -16.336841,-18.052554 z m 0.395934,2.424334 c 4.15368,0 9.30517,3.121668 9.258762,15.281016 -0.02413,6.297413 -0.642034,10.326633 -1.926879,12.840439 -1.157598,-3.738696 -2.487792,-7.862907 -8.276033,-7.871977 -6.009406,-0.0095 -6.747354,5.112307 -6.761332,6.548137 -0.0061,0.624011 0.08363,1.171979 0.245683,1.654801 -1.39408,-2.368641 -2.050735,-6.19163 -2.050735,-12.174459 0,-13.737309 5.031986,-16.277957 9.510534,-16.277957 z M 31.908063,36.68012 c 4.300398,-0.0108 4.312204,5.666433 4.446641,8.633388 -0.975442,0.284423 -2.078273,0.397964 -3.315693,0.397964 -0.459476,0 -0.89976,-0.01536 -1.323839,-0.0467 -1.366473,-0.232255 -3.298882,-1.150417 -3.392849,-4.48319 -0.02904,-1.025242 0.598214,-4.493991 3.58574,-4.501463 z" style="fill:#c4a000;fill-opacity:1;fill-rule:evenodd;stroke:#4e4e4e;stroke-width:0;stroke-linecap:butt;stroke-linejoin:miter;stroke-miterlimit:4;stroke-opacity:1;stroke-dasharray:none"/><path id="path5409" d="m 55.78592,7.0967536 -11.896289,4.1014694 2.854785,2.838541 -12.651611,13.019118 4.552224,0 10.470928,-10.76331 2.862907,2.830419 3.807056,-12.0262374 z" style="fill:#4e9a06;fill-opacity:1;fill-rule:evenodd;stroke:none"/><path id="path5415" d="M 46.745187,14.037279 43.890133,11.198633 55.786191,7.0965456 51.97945,19.123868 49.116193,16.293427 46.745187,14.037279 z" style="fill:#4e9a06;fill-opacity:1;fill-rule:evenodd;stroke:none"/></g></svg>