<svg xmlns="http://www.w3.org/2000/svg" xmlns:svg="http://www.w3.org/2000/svg" xmlns:xlink="http://www.w3.org/1999/xlink" id="svg4198" width="48" height="48" version="1.1"><defs id="defs4200"><linearGradient id="linearGradient5048"><stop style="stop-color:black;stop-opacity:0" id="stop5050" offset="0"/><stop id="stop5056" offset=".5" style="stop-color:black;stop-opacity:1"/><stop style="stop-color:black;stop-opacity:0" id="stop5052" offset="1"/></linearGradient><linearGradient id="linearGradient3558"><stop style="stop-color:#000;stop-opacity:1" id="stop3560" offset="0"/><stop style="stop-color:#000;stop-opacity:0" id="stop3562" offset="1"/></linearGradient><radialGradient id="radialGradient3564" cx="22.571" cy="30.857" r="15.571" fx="22.571" fy="30.857" gradientTransform="matrix(1.000000,0.000000,0.000000,0.651376,4.638648e-15,10.75754)" gradientUnits="userSpaceOnUse" xlink:href="#linearGradient3558"/><linearGradient id="linearGradient15218"><stop id="stop2269" offset="0" style="stop-color:#c17d11;stop-opacity:1"/><stop style="stop-color:#8f5902;stop-opacity:1" id="stop15222" offset="1"/></linearGradient><linearGradient id="linearGradient15224" x1="22.308" x2="35.785" y1="18.992" y2="39.498" gradientTransform="matrix(1.060837,0.000000,0.000000,0.987595,4.641161,4.108291)" gradientUnits="userSpaceOnUse" xlink:href="#linearGradient15218"/><linearGradient id="linearGradient2259"><stop style="stop-color:#fff;stop-opacity:1" id="stop2261" offset="0"/><stop style="stop-color:#fff;stop-opacity:0" id="stop2263" offset="1"/></linearGradient><linearGradient id="linearGradient2265" x1="26.076" x2="30.811" y1="26.697" y2="42.007" gradientTransform="matrix(0.993566,0.000000,0.000000,1.000000,6.219859,4.033411)" gradientUnits="userSpaceOnUse" xlink:href="#linearGradient2259"/><linearGradient id="linearGradient2216"><stop style="stop-color:#000;stop-opacity:1" id="stop2218" offset="0"/><stop style="stop-color:#000;stop-opacity:0" id="stop2220" offset="1"/></linearGradient><linearGradient id="linearGradient2222" x1="36.813" x2="39.063" y1="39.156" y2="42.063" gradientTransform="translate(6.161836,4.033411)" gradientUnits="userSpaceOnUse" xlink:href="#linearGradient2216"/><linearGradient id="linearGradient2224"><stop style="stop-color:#7c7c7c;stop-opacity:1" id="stop2226" offset="0"/><stop style="stop-color:#b8b8b8;stop-opacity:1" id="stop2228" offset="1"/></linearGradient><linearGradient id="linearGradient2240" x1="20.794" x2="35.596" y1="18.379" y2="39.6" gradientTransform="matrix(1.3446772,0,0,1.0962233,-8.2669617,-0.56984359)" gradientUnits="userSpaceOnUse" xlink:href="#linearGradient15218"/></defs><metadata id="metadata4203"/><g id="layer1"><g id="g3078" transform="matrix(1.0690917,0,0,1.016847,-58.73786,-9.0571595)"><path id="path3060" d="m 69.250003,36.499999 6.250001,-2.875 6.5,-1.375 0.5,-9.25 -10,2.25 -3.720009,1.597126 -0.02301,4.870025 z" style="fill:#c00;stroke:#000;stroke-width:1px;stroke-linecap:butt;stroke-linejoin:miter;stroke-opacity:1"/><path id="path3062" d="m 81.875004,32.187499 10.687501,0.75 3.919011,-0.15394 -0.09798,-5.633529 -0.21652,-4.39932 -6.479509,-0.250711 -6.875001,0.3125 z" style="fill:#edd400;stroke:#000;stroke-width:1px;stroke-linecap:butt;stroke-linejoin:miter;stroke-opacity:1"/><path id="path3064" d="m 68.787493,27.065342 -0.08751,-4.281783 -0.07,-3.348904 0.189503,-4.49538 4.743016,2.435723 8.6875,-0.5 0.0625,6.000001 -4.6875,1.125 -5.0625,1.25 z" style="fill:#73d216;stroke:#000;stroke-width:1px;stroke-linecap:butt;stroke-linejoin:miter;stroke-opacity:1"/><path id="path3066" d="m 82.625004,16.937498 7.562501,-1.125 5.875,-3.75 0.423022,3.500711 -0.017,4.069253 0.446483,3.617537 -7.102506,-0.75 -7.312501,0.1875 z" style="fill:#3465a4;stroke:#000;stroke-width:1px;stroke-linecap:butt;stroke-linejoin:miter;stroke-opacity:1"/><path id="path3070" d="m 80.703661,12.591862 1.635343,4.812432 0.240499,6.032494 -0.45921,8.616371 -0.529287,7.340475" style="fill:none;stroke:#000;stroke-width:1px;stroke-linecap:butt;stroke-linejoin:miter;stroke-opacity:1"/></g><rect style="fill:none;stroke:#2e3436;stroke-width:2.28356957;stroke-linecap:butt;stroke-linejoin:miter;stroke-miterlimit:4;stroke-opacity:1;stroke-dasharray:none;stroke-dashoffset:0" id="rect4238" width="29.728" height="30.397" x="14.533" y="3.737" rx=".432" ry=".383"/><path id="path323" d="M 16.672415,4.6302956 15.7378,32.948192 c 0,0 6.380931,-14.272144 14.688614,-14.272144 8.307683,0 12.726741,-14.0457524 12.726741,-14.0457524 l -26.48074,0 z" style="fill:#fff;fill-opacity:.0892857;fill-rule:evenodd;stroke:none"/><rect style="fill:none;stroke:#eeeeec;stroke-width:1.92435658;stroke-linecap:square;stroke-linejoin:round;stroke-miterlimit:0;stroke-opacity:1;stroke-dasharray:none;stroke-dashoffset:0" id="rect4238-7" width="25.345" height="26.233" x="16.745" y="5.705" rx="0" ry="0"/><g id="g3073" transform="translate(64.169943,-15.379573)"><rect id="rect4238-8" width="29.728" height="30.397" x="-60.472" y="29.796" rx=".432" ry=".383" style="fill:#eeeeec;stroke:#2e3436;stroke-width:2.28356957;stroke-linecap:butt;stroke-linejoin:miter;stroke-miterlimit:4;stroke-opacity:1;stroke-dasharray:none;stroke-dashoffset:0"/><path style="fill:#c00;stroke:#000;stroke-width:1px;stroke-linecap:butt;stroke-linejoin:miter;stroke-opacity:1" id="path3060-7" d="m 68.065888,39.771472 4.78848,-2.321819 6.5,-1.375 0.5,-9.25 -10,2.25 -1.790801,1.965913 0.269294,4.132451 z" transform="matrix(1.0690917,0,0,1.016847,-131.0393,16.363363)"/><path style="fill:#edd400;stroke:#000;stroke-width:1px;stroke-linecap:butt;stroke-linejoin:miter;stroke-opacity:1" id="path3062-4" d="m 79.229368,36.012153 10.687501,0.75 2.223647,-0.584192 -0.331824,-4.895954 -0.0996,-4.39932 -4.667223,-0.558034 -6.875001,0.3125 z" transform="matrix(1.0690917,0,0,1.016847,-131.0393,16.363363)"/><path style="fill:#73d216;stroke:#000;stroke-width:1px;stroke-linecap:butt;stroke-linejoin:miter;stroke-opacity:1" id="path3064-0" d="m 68.012604,30.39828 -0.02905,-3.359815 0.222304,-4.086479 -0.278184,-4.249522 2.989191,2.497188 8.6875,-0.5 0.0625,6.000001 -4.6875,1.125 -5.0625,1.25 z" transform="matrix(1.0690917,0,0,1.016847,-131.0393,16.363363)"/><path style="fill:#3465a4;stroke:#000;stroke-width:1px;stroke-linecap:butt;stroke-linejoin:miter;stroke-opacity:1" id="path3066-9" d="m 79.979368,20.762152 7.562501,-1.125 4.062714,-2.950961 0.247639,2.94753 -0.133921,3.331679 0.154178,4.539505 -4.705611,-1.180252 -7.312501,0.1875 z" transform="matrix(1.0690917,0,0,1.016847,-131.0393,16.363363)"/><path style="fill:none;stroke:#000;stroke-width:1px;stroke-linecap:butt;stroke-linejoin:miter;stroke-opacity:1" id="path3070-4" d="m 78.291868,14.449652 1.4015,6.779296 0.240499,6.032494 -0.45921,8.616371 -0.996974,5.189217" transform="matrix(1.0690917,0,0,1.016847,-131.0393,16.363363)"/><path style="fill:#fff;fill-opacity:.0892857;fill-rule:evenodd;stroke:none" id="path323-8" d="m -58.332446,30.689904 -0.934615,28.317897 c 0,0 6.380931,-14.272144 14.688613,-14.272144 8.307683,0 12.726741,-14.045753 12.726741,-14.045753 l -26.480739,0 z"/><rect id="rect4238-7-2" width="25.345" height="26.233" x="-58.26" y="31.765" rx="0" ry="0" style="fill:none;stroke:#eeeeec;stroke-width:1.92435658;stroke-linecap:square;stroke-linejoin:round;stroke-miterlimit:0;stroke-opacity:1;stroke-dasharray:none;stroke-dashoffset:0"/></g></g></svg>