<svg xmlns="http://www.w3.org/2000/svg" xmlns:svg="http://www.w3.org/2000/svg" xmlns:xlink="http://www.w3.org/1999/xlink" id="svg4198" width="48" height="48" version="1.1"><defs id="defs4200"><linearGradient id="linearGradient5048"><stop style="stop-color:black;stop-opacity:0" id="stop5050" offset="0"/><stop id="stop5056" offset=".5" style="stop-color:black;stop-opacity:1"/><stop style="stop-color:black;stop-opacity:0" id="stop5052" offset="1"/></linearGradient><linearGradient id="linearGradient3558"><stop style="stop-color:#000;stop-opacity:1" id="stop3560" offset="0"/><stop style="stop-color:#000;stop-opacity:0" id="stop3562" offset="1"/></linearGradient><radialGradient id="radialGradient3564" cx="22.571" cy="30.857" r="15.571" fx="22.571" fy="30.857" gradientTransform="matrix(1.000000,0.000000,0.000000,0.651376,4.638648e-15,10.75754)" gradientUnits="userSpaceOnUse" xlink:href="#linearGradient3558"/><linearGradient id="linearGradient15218"><stop id="stop2269" offset="0" style="stop-color:#c17d11;stop-opacity:1"/><stop style="stop-color:#8f5902;stop-opacity:1" id="stop15222" offset="1"/></linearGradient><linearGradient id="linearGradient15224" x1="22.308" x2="35.785" y1="18.992" y2="39.498" gradientTransform="matrix(1.060837,0.000000,0.000000,0.987595,4.641161,4.108291)" gradientUnits="userSpaceOnUse" xlink:href="#linearGradient15218"/><linearGradient id="linearGradient2259"><stop style="stop-color:#fff;stop-opacity:1" id="stop2261" offset="0"/><stop style="stop-color:#fff;stop-opacity:0" id="stop2263" offset="1"/></linearGradient><linearGradient id="linearGradient2265" x1="26.076" x2="30.811" y1="26.697" y2="42.007" gradientTransform="matrix(0.993566,0.000000,0.000000,1.000000,6.219859,4.033411)" gradientUnits="userSpaceOnUse" xlink:href="#linearGradient2259"/><linearGradient id="linearGradient2216"><stop style="stop-color:#000;stop-opacity:1" id="stop2218" offset="0"/><stop style="stop-color:#000;stop-opacity:0" id="stop2220" offset="1"/></linearGradient><linearGradient id="linearGradient2222" x1="36.813" x2="39.063" y1="39.156" y2="42.063" gradientTransform="translate(6.161836,4.033411)" gradientUnits="userSpaceOnUse" xlink:href="#linearGradient2216"/><linearGradient id="linearGradient2224"><stop style="stop-color:#7c7c7c;stop-opacity:1" id="stop2226" offset="0"/><stop style="stop-color:#b8b8b8;stop-opacity:1" id="stop2228" offset="1"/></linearGradient><linearGradient id="linearGradient2240" x1="20.794" x2="35.596" y1="18.379" y2="39.6" gradientTransform="matrix(1.3446772,0,0,1.0962233,-8.2669617,-0.56984359)" gradientUnits="userSpaceOnUse" xlink:href="#linearGradient15218"/></defs><metadata id="metadata4203"/><g id="layer1"><g id="g3078" transform="matrix(1.4045007,0,0,1.3358652,-91.574175,-8.4431189)"><path id="path3060" d="m 69.250003,36.499999 6.250001,-2.875 6.5,-1.375 0.5,-9.25 -10,2.25 -3.720009,1.597126 -0.02301,4.870025 z" style="fill:#c00;stroke:#000;stroke-width:1px;stroke-linecap:butt;stroke-linejoin:miter;stroke-opacity:1"/><path id="path3062" d="m 81.875004,32.187499 10.687501,0.75 3.919011,-0.15394 -0.09798,-5.633529 -0.21652,-4.39932 -6.479509,-0.250711 -6.875001,0.3125 z" style="fill:#edd400;stroke:#000;stroke-width:1px;stroke-linecap:butt;stroke-linejoin:miter;stroke-opacity:1"/><path id="path3064" d="m 68.787493,27.065342 -0.08751,-4.281783 -0.07,-3.348904 0.189503,-4.49538 4.743016,2.435723 8.6875,-0.5 0.0625,6.000001 -4.6875,1.125 -5.0625,1.25 z" style="fill:#73d216;stroke:#000;stroke-width:1px;stroke-linecap:butt;stroke-linejoin:miter;stroke-opacity:1"/><path id="path3066" d="m 82.625004,16.937498 7.562501,-1.125 5.875,-3.75 0.423022,3.500711 -0.017,4.069253 0.446483,3.617537 -7.102506,-0.75 -7.312501,0.1875 z" style="fill:#3465a4;stroke:#000;stroke-width:1px;stroke-linecap:butt;stroke-linejoin:miter;stroke-opacity:1"/><path id="path3070" d="m 80.937504,10.624998 1.4015,6.779296 0.240499,6.032494 -0.45921,8.616371 -0.529287,7.340475" style="fill:none;stroke:#000;stroke-width:1px;stroke-linecap:butt;stroke-linejoin:miter;stroke-opacity:1"/></g><rect style="fill:none;fill-opacity:1;fill-rule:evenodd;stroke:#2e3436;stroke-width:3;stroke-linecap:butt;stroke-linejoin:miter;stroke-miterlimit:4;stroke-opacity:1;stroke-dasharray:none;stroke-dashoffset:0" id="rect4238" width="39.054" height="39.934" x="4.848" y="4.095" rx=".567" ry=".503"/><path id="path323" d="M 7.6589876,5.2689074 6.431154,42.471055 c 0,0 8.382838,-18.749783 19.296913,-18.749783 10.914075,0 16.719536,-18.4523646 16.719536,-18.4523646 l -34.7886154,0 z" style="fill:#fff;fill-opacity:.0892857;fill-rule:evenodd;stroke:none"/><rect style="fill:none;stroke:#eeeeec;stroke-width:2.52809024;stroke-linecap:square;stroke-linejoin:round;stroke-miterlimit:0;stroke-opacity:1;stroke-dasharray:none;stroke-dashoffset:0" id="rect4238-7" width="33.297" height="34.463" x="7.754" y="6.681" rx="0" ry="0"/></g></svg>